<?xml version="1.0" encoding="UTF-8" standalone="no"?>
<svg viewBox="0 0 150 32" width="150" height="32" id="logo" version="1.1" xmlns="http://www.w3.org/2000/svg">
<title>HMPPS</title>
<path fill="currentColor" d="m 36.79,13.09 c 0.32,0.87 0.95,1.19 1.43,0.96 -1.08,-0.13 -0.2,-1.97 -1.59,-1.97 -0.08,0 -0.15,0.01 -0.22,0.02 -0.24,-0.25 -0.5,-0.35 -0.9,-0.35 -0.59,0 -1.6,0.57 -1.6,1.74 0,2.52 2.93,2.75 2.93,4.98 0,0.65 -0.49,1.06 -1.04,1.06 -0.49,0 -0.89,-0.55 -1.3,-1.42 -0.2,-0.41 -0.62,-0.98 -1.07,-1.57 0.13,0.1 0.28,0.15 0.43,0.15 0.16,0 0.3,-0.05 0.41,-0.15 0.1,-0.1 0.17,-0.24 0.17,-0.4 v -0.02 c 0,-0.2 -0.09,-0.4 -0.24,-0.57 -0.16,-0.17 -0.37,-0.27 -0.57,-0.27 -0.16,-0.01 -0.3,0.05 -0.41,0.15 -0.11,0.1 -0.17,0.24 -0.17,0.4 v 0.02 c 0,0.09 0.02,0.17 0.05,0.26 -0.63,-0.82 -1.22,-1.63 -1.22,-2.08 0,-0.39 0.27,-0.73 0.6,-1.15 0.01,0.01 0.11,0.06 0.11,0.06 l 0.09,-0.1 c 0.12,-0.13 0.36,-0.4 0.87,-0.94 l 0.03,-0.03 -0,0 0.12,-0.13 -0.31,-0.25 c 0.08,-0.19 0.15,-0.4 0.21,-0.62 0.1,0.4 0.3,0.66 0.59,0.58 -0.19,-0.42 0.19,-0.98 -0.06,-2.01 0.24,0.4 0.58,0.61 0.83,0.53 -0.65,-0.58 0.19,-1.38 -0.65,-2.62 0.28,0.09 0.46,0.04 0.58,-0.1 C 34.11,7.16 34.46,6.18 33.11,5.82 33.44,5.77 33.64,5.57 33.59,5.39 33.23,5.65 32.92,4.91 31.75,4.93 31.68,4.49 31.27,4.03 30.81,3.81 c 0.09,0.34 0.01,0.65 -0.08,0.9 L 26.91,0.95 c -0.11,-0.11 -0.17,-0.13 -0.2,-0.09 -0.03,0.04 -0.03,0.11 0.04,0.18 l 3.28,4.12 c -0.25,0.09 -0.49,0.19 -0.74,0.28 -0.16,0.06 -0.29,0.22 -0.29,0.43 -0.61,0.3 -1.14,0.68 -1.41,0.92 -0.2,0.18 -0.36,0.23 -0.19,0.64 0.07,0.16 -0.14,0.55 0.33,0.26 0.31,-0.19 1.02,-0.58 1.12,-0.33 0.06,0.13 -0.29,0.29 -0.53,0.39 -0.24,0.09 -0.5,0.28 -0.46,0.37 0.04,0.09 0.23,-0.01 0.24,0.09 0.01,0.11 0.09,0.21 0.19,0.21 0.09,0 0.22,-0.2 0.3,-0.13 0.08,0.07 -0.04,0.52 -0.12,0.63 0.37,-0.05 0.61,-0.4 0.62,-0.68 0.01,-0.28 0.08,-0.34 0.14,-0.38 0.06,-0.04 0.12,0.3 0.05,0.5 0.2,-0.04 0.4,-0.3 0.37,-0.78 0.1,-0.08 0.2,-0.14 0.27,-0.14 0.12,0 0.37,0.34 0.73,0.34 0.65,0 1.01,-0.53 1.05,-0.77 0.03,-0.2 0.02,-0.39 -0.09,-0.54 0.23,0.19 0.31,0.48 0.31,0.7 0,0.92 -1.62,1.35 -2.29,1.99 -0.03,0.02 -0.05,0.05 -0.07,0.07 L 28.79,8.92 28.74,9.09 c -0,0.01 -0.01,0.04 -0.04,0.14 -0.08,0.26 -0.25,0.81 -0.35,1.12 -0,0 -0.04,0.13 -0.04,0.13 l 0.07,0.04 c -0.45,0.6 -0.82,1.28 -0.9,1.97 -0.18,-0.19 -0.36,-0.34 -0.56,-0.51 0.02,-0.07 0.04,-0.14 0.04,-0.21 0.01,-0.21 -0.05,-0.4 -0.17,-0.54 -0.09,-0.11 -0.22,-0.17 -0.35,-0.18 -0.13,-0.01 -0.26,0.04 -0.37,0.14 -0.02,0.02 -0.05,0.04 -0.07,0.07 -0.03,-0.02 -0.05,-0.04 -0.08,-0.06 -0.25,-0.19 -0.56,-0.42 -0.75,-0.63 -0.08,-0.09 -0.16,-0.14 -0.33,-0.14 -0.07,0 -0.23,-0.01 -0.34,-0.01 -0.11,0 -0.18,0.09 -0.31,0.2 -0.06,0.05 -0.24,0.19 -0.43,0.34 0.09,0.1 0.19,0.19 0.28,0.3 0.05,0.06 0.1,0.11 0.14,0.17 0.05,-0.04 0.1,-0.08 0.13,-0.1 0.08,-0.07 0.19,-0.08 0.28,-0.08 0.1,0 0.23,0.07 0.33,0.22 0.07,0.1 0.69,0.92 1.2,1.48 -0.06,0.02 -0.11,0.04 -0.16,0.06 -0.22,0.09 -0.71,0.07 -0.93,0.06 -0.22,-0.02 -0.26,-0.07 -0.41,0.16 -0.06,0.09 -0.13,0.2 -0.2,0.28 -0.07,0.09 -0.13,0.19 0.02,0.45 0.23,0.38 0.78,1.39 0.97,1.84 0.18,0.45 0.4,0.53 0.76,0.67 0.36,0.15 0.96,0.5 1.04,0.58 l 0.02,-0.35 c -0.1,-0.11 -0.45,-0.23 -0.57,-0.28 -0.13,-0.05 -0.16,-0.1 -0.01,-0.1 0.15,0 0.58,0.15 0.88,0.28 -0.09,-0.34 -0.41,-0.71 -0.61,-0.92 -0.26,-0.07 -0.52,-0.07 -0.62,0.01 0.01,0.07 -0.04,0.16 -0.15,0.16 -0.1,0 -0.17,-0.09 -0.14,-0.18 0.03,-0.1 0.19,-0.14 0.15,-0.33 -0.03,-0.19 -0.27,-0.23 -0.43,-0.24 -0.22,-0.32 -0.47,-0.78 -0.58,-0.96 -0.11,-0.19 -0.04,-0.29 0.03,-0.36 0.19,-0.15 0.57,0.08 1.35,0.13 0.27,0.02 0.61,0.03 0.96,0.05 0.1,0.9 0.46,1.76 1.72,2.07 0.61,0.15 1.24,0.6 1.46,1.19 -2.51,-0.04 -2.9,0.93 -2.9,1.86 0,1.05 0.88,0.99 0.88,1.78 0,0.69 -2.11,0.97 -2.74,1.06 -0.54,0.08 -0.85,0.2 -1.11,0.46 -0.26,0.26 -0.52,0.51 -0.99,0.98 0,0 0.2,0.05 0.4,0.04 l 0.36,-0.46 c 0.1,-0.15 0.18,-0.28 0.25,-0.27 0.07,0.01 0.02,0.13 -0.06,0.29 l -0.29,0.49 c 1.24,0.08 1.32,-0.38 1.32,-0.57 0,-0.19 -0.31,-0.32 -0.13,-0.44 0.18,-0.12 0.33,-0.04 0.47,0.13 0.14,0.17 0.19,0.31 0.53,0.18 0,0 2.7,-1.12 3.04,-1.27 0.31,-0.14 0.22,-0.27 0.04,-0.42 -0.2,-0.17 -0.23,-0.44 -0.23,-0.72 0,-0.82 0.49,-1.07 1.37,-1.05 -0.02,0.14 -0.03,0.27 -0.03,0.39 0,1.27 1.92,2.52 2.45,2.52 0.23,0 0.54,-0.17 0.56,0.6 0.01,0.57 0.13,0.96 0.03,1.62 -0.1,0.65 -0.29,0.75 -0.68,1.03 -0.39,0.28 -0.76,1.14 -0.93,1.32 0.17,0.11 0.36,0.13 0.51,-0.29 0.12,-0.35 0.26,-0.6 0.41,-0.68 -0.15,0.38 -0.26,0.94 -0.34,1.11 0.49,0.09 1.29,-0.36 1.29,-0.71 0,-0.35 -0.27,-0.32 -0.27,-0.55 0,-0.1 0.12,-0.22 0.27,-0.22 0.2,0 0.35,0.16 0.36,0.23 0.22,-0.12 0.35,-0.33 0.35,-0.84 -0,-0.2 -0.01,-0.4 -0.02,-0.62 0.01,0.03 0.03,0.06 0.04,0.08 0.1,0.15 0.25,0.23 0.44,0.25 0.18,0.02 0.37,-0.04 0.54,-0.15 0.19,-0.13 0.33,-0.31 0.37,-0.52 0.01,-0.04 0.01,-0.08 0.01,-0.12 0,-0.11 -0.03,-0.21 -0.09,-0.3 -0.08,-0.12 -0.21,-0.21 -0.36,-0.24 -0.2,-0.04 -0.43,0.01 -0.62,0.13 -0.18,0.12 -0.31,0.29 -0.36,0.47 -0.04,-0.69 -0.09,-1.35 -0.07,-1.61 0.03,-0.39 0.04,-0.56 -0.09,-0.62 -0.13,-0.06 -0.27,0.16 -0.46,0.16 -0.19,0 -0.75,-0.52 -0.75,-1.07 0,-0.55 0.59,-1.26 0.56,-2.02 -0.01,-0.24 0.14,-0.36 0.23,-0.14 0.11,0.26 0.28,0.61 0.54,0.89 -0.16,0.95 0.88,1.87 1.74,1.19 -0.42,0.06 -0.71,-0.32 -0.9,-0.69 0.07,0.01 0.15,0.02 0.23,0.02 0.04,0 0.09,-0 0.13,-0 0.3,0.37 1.26,0.34 1.5,-0.58 -0.17,0.19 -0.51,0.34 -0.76,0.31 0.36,-0.28 0.55,-0.74 0.55,-1.23 0,-2.4 -2.91,-2.69 -2.91,-4.87 0,-0.81 0.71,-1.33 1.2,-1.33 0.19,0 0.33,0.06 0.45,0.15 -0.19,0.19 -0.29,0.48 -0.27,0.84 0.08,1.73 2.9,1.64 2.93,2.47 0.32,-1.25 -1.79,-0.87 -1.86,-2.55 z M 29.28,6.46 c 0.14,-0.26 0,-0.66 0.48,-0.66 0.23,0 0.44,0.24 0.73,0.33 -0.46,0.04 -0.87,0.14 -1.2,0.33 z m -2.58,5.3 c -0.01,0.14 -0.06,0.27 -0.15,0.35 -0.04,0.04 -0.11,0.08 -0.19,0.07 -0.16,-0.01 -0.29,-0.2 -0.29,-0.42 0,-0.01 0,-0.02 0,-0.03 0.01,-0.14 0.06,-0.26 0.15,-0.34 0.04,-0.04 0.11,-0.08 0.19,-0.07 0.08,0.01 0.14,0.05 0.18,0.09 0.08,0.09 0.12,0.22 0.11,0.36 z m 8.33,12.14 c 0.03,-0.13 0.12,-0.27 0.26,-0.36 0.14,-0.09 0.3,-0.13 0.43,-0.1 0.06,0.01 0.15,0.05 0.2,0.13 v 0 c 0.06,0.08 0.05,0.17 0.04,0.24 -0.03,0.13 -0.12,0.27 -0.26,0.36 -0.24,0.16 -0.52,0.14 -0.64,-0.03 -0.06,-0.08 -0.05,-0.18 -0.04,-0.24 z m -1.75,-8.06 c 0,-0.06 0.02,-0.15 0.09,-0.22 0.07,-0.07 0.16,-0.08 0.23,-0.08 0.14,0 0.29,0.08 0.4,0.19 0.11,0.12 0.17,0.27 0.17,0.41 -0,0.06 -0.02,0.15 -0.09,0.22 l -0,0 c -0.07,0.07 -0.16,0.08 -0.23,0.08 -0.14,-0 -0.29,-0.08 -0.4,-0.2 -0.11,-0.12 -0.17,-0.27 -0.17,-0.41 z m -4.78,-5.44 c 0.14,-0.42 0.39,-1.27 0.39,-1.27 l 0.44,0.17 c -0.13,0.05 -0.29,0.17 -0.42,0.3 0.1,0.04 0.28,0.05 0.4,-0.03 l -0.18,0.45 c -0.04,-0.07 -0.17,-0.23 -0.29,-0.26 -0.09,0.36 0.13,0.49 0.3,0.58 0.27,0.14 0.45,0.16 0.52,0.04 0.09,-0.15 -0.09,-0.37 -0.32,-0.27 -0.02,-0.23 0.11,-0.36 0.26,-0.36 0.12,0 0.22,0.11 0.25,0.26 -0.02,-0.38 0.15,-0.67 0.5,-0.78 0.13,0.37 0.02,0.62 -0.25,0.88 0.14,-0.06 0.31,-0.05 0.38,0.05 0.08,0.13 0.05,0.31 -0.15,0.42 -0.05,-0.24 -0.33,-0.26 -0.41,-0.11 -0.08,0.16 0.04,0.3 0.29,0.44 0.29,0.16 0.52,0.07 0.68,-0.19 -0.1,-0.03 -0.26,-0.01 -0.42,0.08 l 0.3,-0.55 c 0.01,0.08 0.06,0.22 0.19,0.33 0.04,-0.12 0.11,-0.34 0.02,-0.54 l 0.64,0.37 c -0.21,0.02 -0.37,0.18 -0.45,0.28 0.15,0.05 0.3,0.03 0.37,-0 l -0.33,0.53 c 0.01,-0.18 -0.06,-0.33 -0.13,-0.4 -0.14,0.26 -0.11,0.51 0.18,0.68 0.25,0.15 0.43,0.18 0.53,0.03 0.1,-0.15 -0.06,-0.38 -0.29,-0.3 -0.01,-0.23 0.13,-0.35 0.28,-0.34 0.12,0.01 0.21,0.15 0.24,0.3 0.09,-0.37 0.25,-0.59 0.63,-0.66 0.08,0.36 -0.09,0.65 -0.43,0.83 0.15,-0.05 0.29,-0.02 0.35,0.09 0.08,0.13 0.04,0.31 -0.18,0.4 -0.03,-0.25 -0.31,-0.29 -0.4,-0.14 -0.07,0.13 0.04,0.27 0.29,0.43 0.16,0.1 0.38,0.23 0.65,-0.03 -0.09,-0.1 -0.29,-0.12 -0.37,-0.12 l 0.3,-0.38 c -0.01,0.15 0.09,0.3 0.18,0.36 0.04,-0.19 0.07,-0.38 0.05,-0.52 l 0.37,0.3 c 0,0 -0.6,0.64 -0.9,0.97 z m 3.95,9.97 c -0.16,0.23 -0.43,0.31 -0.61,0.18 -0.18,-0.13 -0.19,-0.41 -0.03,-0.64 0.16,-0.22 0.43,-0.31 0.61,-0.18 0.18,0.13 0.19,0.41 0.03,0.64 z m 1.15,-1.82 c -0.16,0.23 -0.43,0.31 -0.61,0.18 -0.18,-0.13 -0.19,-0.41 -0.03,-0.64 0.16,-0.23 0.43,-0.31 0.61,-0.18 0.18,0.13 0.19,0.41 0.03,0.64 z m -7.08,-4.46 c -0.15,0.05 -0.27,0.15 -0.33,0.28 -0.15,0.31 0.04,0.71 0.42,0.9 0.21,0.1 0.44,0.12 0.63,0.05 0.15,-0.05 0.27,-0.15 0.33,-0.28 0.06,-0.13 0.07,-0.29 0.02,-0.43 -0.07,-0.19 -0.23,-0.36 -0.43,-0.46 -0.21,-0.1 -0.44,-0.12 -0.63,-0.05 m 0.2,0.96 c -0.26,-0.12 -0.39,-0.37 -0.3,-0.56 0.04,-0.09 0.12,-0.14 0.19,-0.16 0.13,-0.05 0.29,-0.03 0.44,0.04 0.15,0.07 0.26,0.19 0.31,0.32 0.02,0.06 0.04,0.15 -0.01,0.24 -0.04,0.09 -0.13,0.13 -0.19,0.16 -0.13,0.05 -0.29,0.03 -0.44,-0.04 m 4.59,6.95 c -0.15,0.14 -0.23,0.36 -0.24,0.59 v 0.02 c 0,0.22 0.08,0.43 0.22,0.58 0.11,0.11 0.25,0.18 0.39,0.18 0.15,0 0.29,-0.06 0.4,-0.16 0.15,-0.14 0.23,-0.36 0.24,-0.59 0,-0.2 -0.06,-0.39 -0.16,-0.53 -0.12,-0.15 -0.27,-0.24 -0.45,-0.25 -0.15,-0 -0.29,0.06 -0.4,0.17 z m 0.38,1.11 h -0 c -0.1,-0 -0.17,-0.06 -0.22,-0.1 -0.1,-0.1 -0.15,-0.26 -0.15,-0.42 0,-0.16 0.06,-0.31 0.16,-0.41 0.05,-0.05 0.12,-0.1 0.23,-0.1 0.21,0 0.37,0.24 0.36,0.52 -0,0.16 -0.06,0.31 -0.16,0.41 -0.05,0.04 -0.12,0.1 -0.22,0.09 z m -0.01,0.25 h -0 z M 27.06,9.9 c -0.3,0.24 -0.39,0.63 -0.2,0.89 h 0 c 0.19,0.25 0.6,0.26 0.9,0.03 0.17,-0.13 0.27,-0.31 0.3,-0.5 0.02,-0.14 -0.02,-0.28 -0.1,-0.39 -0.08,-0.11 -0.2,-0.17 -0.35,-0.19 -0.19,-0.03 -0.39,0.04 -0.56,0.16 m -0.05,0.57 c 0,-0.13 0.08,-0.27 0.21,-0.37 0.11,-0.09 0.25,-0.13 0.37,-0.11 0.06,0.01 0.13,0.03 0.18,0.1 0.05,0.07 0.06,0.15 0.05,0.2 -0.02,0.12 -0.09,0.24 -0.2,0.33 -0.19,0.15 -0.44,0.16 -0.55,0.02 -0.03,-0.04 -0.05,-0.1 -0.05,-0.16 m 5.44,13.15 c -0.13,0.09 -0.22,0.22 -0.24,0.36 -0.03,0.17 0.02,0.34 0.15,0.49 0.12,0.13 0.29,0.23 0.49,0.26 0.2,0.03 0.39,0.01 0.55,-0.08 0.17,-0.09 0.28,-0.24 0.31,-0.41 0.06,-0.34 -0.23,-0.68 -0.64,-0.75 -0.22,-0.04 -0.45,0 -0.62,0.12 m 0.44,0.87 c -0.28,-0.05 -0.48,-0.26 -0.44,-0.46 0.02,-0.1 0.08,-0.17 0.14,-0.2 0.12,-0.08 0.27,-0.11 0.43,-0.08 0.25,0.04 0.44,0.23 0.44,0.42 0,0.02 -0,0.03 -0,0.05 -0.04,0.2 -0.29,0.33 -0.57,0.28 m 3.2,-1.77 c 0,0.54 0.44,0.98 0.98,0.98 0.54,0 0.98,-0.44 0.98,-0.98 0,-0.54 -0.44,-0.98 -0.98,-0.98 -0.54,0 -0.98,0.44 -0.98,0.98 m 0.25,0 c 0,-0.4 0.33,-0.73 0.73,-0.73 0.4,0 0.72,0.33 0.72,0.73 0,0.4 -0.32,0.73 -0.72,0.73 -0.4,0 -0.73,-0.33 -0.73,-0.73 M 13.94,17.13 c 0.09,-0.24 -0.36,-0.52 -0.41,-0.87 -0.05,-0.35 -0.01,-0.68 -0.41,-1.15 -0.39,-0.46 -1.75,-1.91 -2.15,-2.37 0.1,-0.01 0.34,-0.07 0.6,0.17 0.15,0.14 0.43,0.41 0.71,0.68 0.36,-0.91 0.8,-1.6 1.44,-2.31 0.08,-0.09 0.16,-0.18 0.25,-0.27 -0.23,0.07 -0.59,0.13 -0.8,0.27 -0.02,-0.4 0.01,-0.72 -0.26,-0.97 0.1,-0.56 0.01,-1.23 -1.23,-2.06 0.64,0.15 1.02,0.73 1.5,0.29 -0.44,-0.01 -0.45,-0.97 -2.03,-1.76 0.6,-0.01 1.08,0.97 1.78,0.41 -0.66,-0.08 -0.88,-1.25 -2.07,-1.61 0.41,0.05 0.84,0.25 1.19,-0.23 -0.41,0.1 -0.65,-0.28 -1.1,-0.32 0.17,-0.51 0.13,-0.83 -0.05,-1.21 -0.31,0.02 -0.63,0.12 -0.86,0.3 -0.03,-0.28 -0.33,-0.3 -0.59,-0.28 0.01,0.12 0.07,0.3 -0.06,0.32 C 9.16,4.21 8.46,4.4 7.91,4.61 7.37,4.82 6.74,5.21 6.56,5.33 6.45,5.41 6.36,5.23 6.29,5.15 6.1,5.31 5.91,5.52 6.05,5.74 5.75,5.76 5.41,5.84 5.13,6.07 c 0,0.35 0.29,0.7 0.73,0.89 -0.73,0.73 -0.07,1.4 -0.72,2.04 0.91,0.03 0.75,-1.23 1.21,-1.41 -0.05,0.89 -0.54,1.05 -0.54,2.01 0,0.51 0.3,1.07 0.03,1.41 0.76,-0.21 0.56,-1.89 1.03,-2.4 0.08,0.29 0.03,0.57 -0.06,0.86 -0.27,0.78 0.03,1.86 -0.38,2.21 0.78,-0.08 0.87,-1.32 1.51,-1.78 -0.55,1.12 -1.11,3.51 -1.93,4.71 -1.32,1.78 -2.1,3.96 -3.31,3.96 -0.54,0 -0.94,-0.33 -0.94,-1 0,-2.03 3.48,-3.43 3.48,-5.59 0,-0.96 -0.78,-1.33 -1.27,-1.33 -0.33,0 -0.73,0.16 -1.06,0.44 -0.14,-0.06 -0.29,-0.09 -0.41,-0.09 -1.23,0 -0.9,2.21 -1.97,2.19 0.42,0.24 1.16,-0.23 1.59,-0.85 -0.18,1.44 -2.24,1.05 -2.08,2.78 0.29,-1.35 3.57,-1.15 3.57,-3.2 0,-0.23 -0.12,-0.42 -0.28,-0.58 0.25,-0.16 0.48,-0.22 0.69,-0.22 0.39,0 0.75,0.29 0.75,0.87 0,1.81 -3.46,3.34 -3.46,5.57 0,0.38 0.11,0.69 0.29,0.93 -0.24,0.1 -0.49,0.06 -0.7,-0.19 -0.02,0.57 0.8,0.93 1.31,0.65 0.11,0.04 0.23,0.06 0.36,0.07 -0.16,0.43 -0.68,0.55 -0.96,0.53 0.85,0.67 2.32,-0.21 2.24,-0.96 0.67,-0.54 1.1,-1.47 1.59,-2.08 -0.03,0.14 -0.06,0.28 -0.08,0.42 -0.5,0.9 -0.96,1.71 -1.09,2.9 -0.11,1 -0.61,1.89 -1.31,1.89 -0.15,0 -0.41,-0.2 -0.52,-0.1 -0.22,0.19 -0.01,0.38 -0.01,0.57 0,0.28 -0.54,0.57 -0.54,1.44 0,0.39 0.23,0.86 0.14,1.13 0.22,-0.12 0.52,-0.49 0.64,-0.97 0.24,1.15 -0.49,1.1 0.03,2.13 0.07,-0.34 0.4,-0.48 0.61,-0.34 0.21,0.14 0.11,0.24 -0.04,0.39 -0.15,0.15 -0.29,0.92 0.4,0.87 -0.13,-0.09 -0.14,-0.29 0.21,-0.36 0.48,-0.1 0.62,0.12 1.13,0.12 0.32,0 0.4,-0.41 0.65,-0.41 0.25,0 0.25,0.2 0.16,0.34 0.4,-0.11 0.48,-0.33 0.48,-0.56 0,-0.23 -0.19,-0.37 -0.04,-0.46 0.14,-0.09 0.61,0.01 0.43,0.39 0.24,-0.04 0.37,-0.22 0.37,-0.51 0,-0.29 -0.34,-0.47 -0.65,-0.41 C 6.33,24.78 6.06,24.69 5.81,24.69 c -0.57,0 -0.48,0.45 -0.87,0.45 -0.62,0 -1.23,-0.81 -1.23,-2.17 0,-0.73 0.79,-0.92 1.34,-1.16 0.56,-0.24 1.53,-0.84 2.11,-1.82 0.46,-0.77 0.47,-1.61 0.41,-2.61 0.78,0.45 0.88,1.1 0.88,1.57 0,0.61 -0.32,0.86 -0.56,0.97 -0.21,0.1 -0.28,0.06 -0.3,0.18 -0.03,0.16 0.08,0.25 0.17,0.29 0.28,0.15 0.22,0.42 0.3,0.71 0.08,0.3 0.34,0.76 0.78,1.1 0.05,-0.18 0.03,-0.47 0.01,-0.85 0.6,0.3 0.12,1.51 1.29,1.51 -0.22,-0.12 -0.16,-0.44 -0.03,-0.49 0.12,-0.05 0.28,0.08 0.51,0.39 0.23,0.32 0.17,0.29 0.72,0.29 0.55,0 0.3,-0.19 0.6,-0.19 0.29,0 0.27,0.34 0.11,0.59 0.49,-0.15 0.64,-0.52 0.48,-0.91 0.43,-0.24 0.67,0.1 0.73,0.34 0.43,-0.43 0,-0.95 -0.34,-0.98 0.01,-0.16 -0.14,-0.33 -0.32,-0.34 -0.18,-0.01 -0.36,-0.02 -0.55,-0.01 -0.2,0.01 -0.32,0.31 -0.55,0.31 -0.73,0 -2.18,-1.33 -2.18,-1.91 0,-0.58 1.39,-0.93 1.39,-1.82 0,-1.17 -1.15,-1.56 -2.11,-2.31 0.34,-0.39 1.35,-0.48 1.91,-0.2 0.06,-0.32 0.27,-0.24 0.35,-0.8 0.2,0.49 -0.01,0.92 0.2,1.13 0.16,-0.24 0.58,-0.2 0.55,-0.81 0.13,0.38 -0.16,0.97 0.13,1.22 0.05,-0.31 0.24,-0.37 0.36,-0.37 0.12,0 0.22,0.09 0.22,0.27 0,0.47 -0.57,0.25 -0.57,0.77 0,0.22 0.28,0.3 0.28,0.44 0,0.14 -0.23,0.36 -0.51,0.18 0.09,0.2 0.28,0.38 0.52,0.38 0.25,0 0.53,-0.2 0.63,-0.47 0.13,0.34 0.03,0.71 -0.21,0.75 0.25,0.13 0.85,0.01 0.79,-0.76 0.34,0.06 0.52,0.29 0.32,0.7 0.28,-0.07 0.53,-0.2 0.53,-0.5 0,-0.23 -0.25,-0.3 -0.14,-0.59 M 7.37,6.62 C 7.05,6.65 7.06,6.34 6.5,6.21 6.9,6.13 7.4,5.93 7.84,5.76 7.92,6.13 7.77,6.58 7.37,6.62 m 2.25,2.38 C 9.21,9.18 8.89,8.82 8.81,8.58 8.73,8.33 8.67,8.13 8.76,8.03 8.94,7.86 8.99,7.73 8.89,7.51 8.77,7.26 8.5,7.38 8.22,7.45 8.35,7.21 8.36,7.04 8.18,7.06 7.96,7.08 7.96,7.43 7.84,7.39 7.72,7.35 7.79,7.15 7.79,7.04 7.79,6.89 7.88,6.84 8.03,6.77 L 9.21,6.32 c 0.15,-0.06 0.26,-0.08 0.36,0.02 0.08,0.08 0.26,0.17 0.21,0.29 -0.06,0.11 -0.3,-0.14 -0.48,-0 -0.15,0.11 -0.02,0.23 0.24,0.3 -0.25,0.15 -0.53,0.25 -0.44,0.52 0.07,0.23 0.21,0.29 0.45,0.29 0.13,0 0.23,0.19 0.34,0.42 C 10.02,8.39 10.05,8.81 9.61,9 M 9.69,5.71 C 9.37,5.96 8.95,5.73 8.76,5.4 9.19,5.22 9.7,5.02 10.04,4.81 9.72,5.29 9.94,5.51 9.69,5.71 M 8.97,2.71 c 0.09,0.14 0.12,0.2 0.13,0.31 -0.07,-0.03 -0.15,-0.1 -0.24,-0.21 l 0.05,0.53 C 8.97,3.24 9.02,3.17 9.1,3.14 9.08,3.48 8.94,3.63 8.82,3.65 8.68,3.68 8.57,3.59 8.55,3.48 8.52,3.32 8.66,3.23 8.79,3.36 8.82,3.05 8.56,3.05 8.45,3.19 8.58,2.88 8.53,2.68 8.26,2.51 8.09,2.8 8.16,2.99 8.37,3.2 8.16,3.1 7.98,3.28 8.16,3.51 8.2,3.31 8.38,3.35 8.42,3.52 8.46,3.65 8.32,3.83 8.1,3.9 7.77,4 7.67,3.79 7.59,3.62 7.66,3.57 7.83,3.59 8.01,3.7 L 7.85,3.19 C 7.78,3.37 7.67,3.45 7.54,3.5 7.54,3.35 7.64,3.05 7.64,3.05 L 7.02,3.3 c 0,0 0.29,0.14 0.39,0.25 -0.13,0.05 -0.26,0.07 -0.44,-0.01 L 7.21,4.03 C 7.26,3.81 7.37,3.69 7.46,3.67 7.52,3.85 7.59,4.07 7.29,4.23 7.08,4.34 6.86,4.3 6.79,4.18 6.71,4.04 6.8,3.88 6.97,4 6.94,3.7 6.68,3.7 6.61,3.93 6.61,3.62 6.53,3.43 6.21,3.35 c -0.08,0.31 0.03,0.49 0.33,0.62 -0.17,-0.02 -0.36,0.15 -0.12,0.37 0,-0.19 0.16,-0.22 0.25,-0.09 0.06,0.09 0.05,0.23 -0.07,0.31 -0.1,0.07 -0.3,0.06 -0.55,-0.17 0.08,-0.03 0.16,-0.02 0.27,0 L 5.98,3.98 c 0.02,0.15 0.01,0.25 -0.02,0.32 C 5.89,4.21 5.87,4.14 5.83,3.98 L 5.58,4.21 C 5.82,4.36 6.1,4.59 6.43,5.06 6.79,4.83 7.42,4.53 7.82,4.37 8.21,4.21 8.88,3.98 9.29,3.89 9.2,3.32 9.24,2.97 9.31,2.69 Z M 6.35,2 6.53,2.4 6.76,2.12 c 0.01,0 0.02,0.01 0.03,0.01 0.02,0.13 0.03,0.36 0.03,0.49 0,0.16 0.13,0.29 0.29,0.29 0.16,0 0.29,-0.13 0.29,-0.29 0,-0.11 -0.06,-0.21 -0.15,-0.26 C 7.13,2.28 7,2.17 6.92,2.07 c 0.01,-0.01 0.01,-0.02 0.01,-0.04 L 7.32,2.07 7.17,1.66 6.88,1.91 c -0,-0 -0.01,-0.01 -0.01,-0.01 L 6.84,1.48 6.45,1.63 6.71,1.94 c -0.01,0.01 -0.01,0.02 -0.02,0.03 z M 20.86,20.15 c 0.01,0.02 0.03,0.04 0.07,0.05 0.36,0.1 0.77,-0.17 1,-0.11 -0.29,-0.1 -0.47,0.07 -0.74,0.02 0.16,0 0.33,-0.03 0.34,-0.07 -0.12,0.08 -0.48,-0.06 -0.62,0.03 -0.01,0.01 -0.02,0.02 -0.03,0.03 -0.11,0.02 -0.21,0.08 -0.21,0.17 0,0.24 0.93,0.05 0.93,0.13 0,0.06 -0.18,0.12 -0.42,0.12 -0.19,0 -0.5,-0.12 -0.9,-0.02 v -0 c 0.03,-0.07 0.11,-0.17 0.08,-0.22 0.03,-0.01 0.06,-0.04 0.06,-0.07 -0.02,-0.02 -0.04,-0.03 -0.06,-0.03 0.01,-0.02 -0,-0.03 -0.02,-0.05 -0,-0 -0.01,-0.04 -0.02,-0.04 -0.01,-0.01 -0.04,-0.03 -0.08,-0.05 -0.04,-0.02 -0.06,-0.02 -0.08,-0.02 -0.01,-0 -0.04,0.01 -0.05,0.01 -0.02,-0 -0.04,-0 -0.04,0.02 -0.01,-0.01 -0.04,-0.02 -0.06,-0.03 -0.02,0.03 -0.02,0.06 -0.01,0.1 -0.03,0 -0.06,0.08 -0.09,0.07 0.01,0.02 0.02,0.03 0.03,0.03 -0.03,0.05 -0.04,0.1 -0.07,0.11 0.01,0.02 0.03,0.03 0.03,0.03 -0.02,0.07 -0.02,0.16 -0.02,0.23 -0.06,-0.06 -0.14,-0.19 -0.2,-0.23 -0.05,-0.03 -0.05,-0.06 -0.05,-0.11 0,-0.05 0.02,-0.09 0.02,-0.13 -0,-0.01 -0.01,-0.03 -0.01,-0.04 -0.01,-0.03 -0.05,-0.05 -0.07,-0.05 0.01,0.01 0.03,0.02 0.03,0.05 -0.01,0.01 -0.02,0.02 -0.02,0.02 -0.01,0.01 -0.02,0.03 0,0.05 0,0 0,0.01 0,0.01 0,0.01 -0,0.01 -0,0.02 -0,0.01 -0,0.01 -0.01,0 -0.01,-0.03 -0.03,-0.08 -0.06,-0.08 -0,0 -0.02,-0 -0.02,-0 0,-0 0,-0 0,-0.01 0,-0.03 -0.04,-0.06 -0.08,-0.02 0.01,0 0.03,0 0.03,0.01 -0,0.01 -0.01,0.03 -0.01,0.04 -0,0.03 0.02,0.05 0.06,0.05 0.01,0 0.01,0 0.01,0.01 0,0.01 0,0.01 0,0.01 0,0.01 -0,0.01 -0,0 -0.06,-0.02 -0.09,0 -0.09,0.03 0,0 -0,0.02 0,0.03 -0.02,0.02 -0.03,0.05 0.01,0.07 -0,-0.01 -0,-0.03 0.01,-0.04 0,-0 0.01,-0 0.01,-0 0.01,0.01 0.02,0.01 0.02,0.02 0,0 0.01,0 0.04,-0.01 0,-0 0.01,-0 0.01,0 0.01,0 0.01,0.01 0.02,0.01 0,0 0,0.01 0,0.01 -0.04,0.04 -0.03,0.08 0.02,0.09 0.01,0 0.01,0 0.01,0.01 -0.01,0.07 -0.1,0.06 -0.1,-0.01 -0.06,0.09 0.04,0.15 0.12,0.11 0,-0 0.01,-0 0.01,0 0,0.01 0.01,0.02 0.02,0.03 -0,-0 0,-0.02 0.02,-0.02 0.01,0 0.01,0 0.01,0.01 0,0.02 0.01,0.05 0.04,0.05 -0,-0.02 0,-0.03 0.01,-0.03 0.01,0 -0,0.12 0.11,0.18 0.02,0.06 0.07,0.1 0.13,0.09 0.02,0.04 0.05,0.09 0.04,0.09 -0.02,0 -0.14,-0.01 -0.18,0 -0.03,0.01 -0.07,0.04 -0.12,0.04 l -0.01,0.01 c 0,-0 0,-0.01 0.01,-0.01 -0.04,0.01 -0.07,0 -0.09,-0.02 -0.01,-0.02 -0.01,-0.04 -0.02,-0.06 -0.01,-0.02 -0.03,-0.03 -0.04,-0.03 -0,0 -0.02,-0 -0.03,-0 -0.02,-0.02 -0.06,-0.02 -0.08,-0.01 0.02,0 0.03,0.01 0.05,0.03 -0,0.01 -0.01,0.02 -0.01,0.03 -0.01,0.02 -0,0.04 0.07,0.07 0,0 0.01,0.01 0,0.01 -0.01,0.01 -0.03,0.01 -0.04,-0 -0.03,-0.02 -0.04,-0.06 -0.07,-0.04 -0,0 -0.01,0.01 -0.02,0.01 -0,-0 -0.01,-0 -0.01,-0 -0.03,-0 -0.09,0.04 -0.06,0.08 0,-0.01 0.02,-0.03 0.04,-0.04 0,0.01 0.01,0.02 0.01,0.02 0,0.04 0.02,0.07 0.1,0.02 0.01,-0 0.01,0 0.01,0.01 -0.02,0.03 -0.07,0.07 -0.03,0.09 0,0 0.01,0.01 0.02,0.01 -0,0 -0,0.01 -0,0.01 -0.01,0.05 0.04,0.08 0.07,0.08 -0.01,-0.01 -0.03,-0.03 -0.03,-0.07 0.01,0 0.02,0.01 0.03,0.01 0.04,-0.02 0.02,-0.06 0.04,-0.08 0.01,-0 0.01,-0 0.01,0 0,0.02 0.01,0.06 0.06,0.06 0.04,-0 0.07,-0.04 0.06,-0.07 -0,-0 0,-0.01 0,-0 0.01,0.01 0.03,0.03 0.02,0.05 0.01,-0 0.02,-0.02 0.03,-0.03 0.01,0.02 0.01,0.05 -0.02,0.08 0.02,-0 0.06,-0.03 0.08,-0.08 0.01,0.01 0.01,0.02 0.02,0.03 0,-0 0,-0 0,-0 0.02,0.01 0.05,0.01 0.09,-0 0,-0 0.01,0 0.01,0.01 -0.01,0.02 -0.01,0.04 0,0.05 0,-0 0.01,-0.02 0.02,-0.02 0.01,0 -0,0.04 0.03,0.07 0.01,-0.12 0.07,-0.07 0.15,-0.12 0.01,-0 0.01,-0 0.01,0.01 -0.01,0.01 -0.02,0.03 -0.03,0.04 0.03,0 0.11,-0.04 0.11,-0.08 0,-0.02 0.05,-0.07 0.07,-0.2 0.01,0 0.02,0 0.03,0 0.1,-0.01 0.14,-0.08 0.24,-0.08 -0.02,0.03 -0.03,0.1 -0.03,0.14 0,0.05 0.07,0.11 0.09,0.13 0,0.01 0,0.01 -0,0.01 -0.03,0 -0.06,0.01 -0.07,0.02 -0.08,0.05 -0.08,-0.12 -0.17,-0.09 -0.01,0 -0.02,0.01 -0.02,0.02 -0.04,-0 -0.08,0.04 -0.07,0.07 0.01,-0.01 0.03,-0.03 0.05,-0.03 v 0.02 c 0,0.01 0,0.03 0.03,0.03 0.02,0 0.02,-0.01 0.03,-0.01 0.01,0 0.01,0 0.01,0.01 0,0.03 -0.11,-0.02 -0.09,0.07 0,0 0.01,0.02 0.01,0.03 -0,0.03 0.02,0.05 0.07,0.04 -0.01,-0.01 -0.03,-0.02 -0.02,-0.03 0.01,0 0.02,0 0.02,0 0,0 0.01,-0 0.01,-0.01 0,-0 0,-0 0,-0 0,0 0.01,0 0.01,0.01 0,0 -0.01,0.01 -0.01,0.02 0,0 0.01,0.02 0.01,0.03 -0,0.03 0.04,0.07 0.09,0.03 -0.01,-0 -0.04,-0.01 -0.05,-0.02 0.01,-0 0.02,-0.01 0.02,-0.01 0.01,-0 0.01,-0.02 0.01,-0.03 0,-0.01 0,-0.01 0.01,-0.01 0.01,-0 0.02,-0 0.02,-0 0.01,-0 0.01,0 0.02,0.01 0.01,0.02 0.03,0.04 0.07,0.02 0.06,-0.02 0.01,-0.07 0.05,-0.08 0.01,-0 0.02,-0 0.03,0 0.04,0.01 0.08,0.02 0.09,-0 0.01,-0.02 0.01,-0.1 -0.04,-0.13 -0.03,-0.01 0.04,-0.19 -0.1,-0.27 0.06,0.02 0.27,0.04 0.3,-0.01 0.06,0.01 0.13,0.06 0.14,0.07 0.01,0.01 0.01,0.03 -0.01,0.04 -0.05,0.03 -0.05,0.05 -0.08,0.06 l -0.01,0 c -0.02,-0.02 -0.04,-0.04 -0.05,-0.05 -0.02,-0.01 -0.04,-0 -0.04,0 -0.03,-0.01 -0.07,0 -0.09,0.03 0.01,-0 0.04,-0.01 0.06,-0 -0,0 -0,0.01 -0,0.01 -0,0.01 0,0.02 0.01,0.03 h -0 0 c 0,0 0,0 0.01,0 0,0 0,0.01 -0.01,0.01 -0.03,-0.01 -0.09,-0.01 -0.08,0.03 0,0 0,0.01 0.01,0.02 -0.02,0.02 -0.03,0.05 -0.01,0.07 0,-0.01 0.01,-0.02 0.04,-0.03 0.01,0.01 0.01,0.01 0.01,0.02 0.02,0.02 0.05,-0.03 0.08,-0.02 0,0 0.01,0 0,0.01 -0.03,0.01 -0.06,0.03 -0.05,0.06 0,0 0.01,0.01 0.01,0.02 -0.01,0.02 -0,0.06 0.04,0.07 -0,-0.01 -0.01,-0.03 -0,-0.04 0.01,-0 0.03,-0 0.03,-0 0.06,-0.03 0.02,-0.07 0.04,-0.09 0.02,-0.02 0.05,0.04 0.1,-0.01 0.01,-0.01 0.02,-0.03 0.01,-0.05 -0,-0 0,-0 0,-0.01 v 0 c 0.01,0.01 0.02,0.03 0.05,0.02 -0.04,-0.03 0,-0.05 0.02,-0.07 0,-0 0.01,-0.01 0.01,-0 0.02,0 0.04,-0 0.07,-0.03 -0.03,0.01 -0.1,-0.04 -0.05,-0.05 0.06,-0.02 0.07,-0.06 0.05,-0.09 -0.05,-0.06 -0.15,-0.07 -0.15,-0.14 0.04,-0 0.08,-0 0.09,-0 0.31,0 0.51,-0.09 0.51,-0.19 -0.01,-0.21 -0.94,0.02 -0.94,-0.14 0,-0.05 0.06,-0.08 0.13,-0.11 m -0.68,0.03 c 0.01,0.01 0.07,0.03 0.1,0.04 -0.05,0.01 -0.04,0.03 -0.07,0.03 -0.03,-0 -0.04,-0.04 -0.04,-0.07 m -0.06,-0.03 c -0.02,0.02 -0.04,0.04 -0.07,0.02 -0.02,-0.02 0,-0.03 -0.03,-0.07 0.03,0.02 0.08,0.05 0.09,0.05 m -0.1,0.21 c 0.01,-0.02 0.02,-0.03 0.03,-0.03 0.02,0 0.03,-0 0.03,-0.02 0.01,-0.02 -0.01,-0.03 -0.03,-0.04 0.02,-0.01 0.03,-0.02 0.02,-0.03 -0.01,-0.01 -0.03,0.01 -0.04,0 -0,-0.01 0.01,-0.02 0.02,-0.02 0.01,-0.01 0.02,-0 0.03,0 l 0.08,0.04 c 0.01,0.01 0.02,0.01 0.02,0.02 0,0.01 0,0.03 -0.01,0.03 -0.01,0 -0.01,-0.03 -0.02,-0.03 -0.01,-0 -0.01,0.01 -0.01,0.03 -0.02,-0 -0.04,-0.02 -0.05,0 -0.01,0.02 -0.01,0.03 0.01,0.04 0.01,0.01 0,0.02 -0.01,0.04 -0.01,0.02 -0.03,0.05 -0.06,0.03 -0.03,-0.02 -0.03,-0.05 -0.02,-0.07 m 1.14,-1.52 c 0.01,0.02 0.03,0.04 0.07,0.05 0.36,0.1 0.78,-0.17 0.99,-0.11 -0.29,-0.1 -0.46,0.07 -0.74,0.02 0.16,-0 0.33,-0.03 0.34,-0.08 -0.12,0.08 -0.48,-0.05 -0.62,0.04 -0.01,0 -0.02,0.01 -0.02,0.02 -0.2,-0 -0.36,-0 -0.36,0.13 0,0.28 0.75,0.12 0.99,0.12 0.23,0 0.21,0.02 0.21,0.07 0,0.07 -0.27,0.08 -0.4,0.08 -0.2,0 -0.82,-0.11 -1.19,-0.03 0.03,-0.06 0.1,-0.14 0.06,-0.18 0.03,-0.01 0.06,-0.04 0.06,-0.07 -0.02,-0.02 -0.05,-0.03 -0.07,-0.03 0.01,-0.02 -0,-0.04 -0.02,-0.05 -0,-0 -0.01,-0.04 -0.02,-0.05 -0.01,-0.01 -0.04,-0.04 -0.08,-0.06 -0.04,-0.02 -0.07,-0.02 -0.08,-0.02 -0.01,-0 -0.05,0.01 -0.05,0.01 -0.02,-0 -0.04,-0 -0.05,0.02 -0.02,-0.02 -0.04,-0.02 -0.06,-0.03 -0.02,0.03 -0.02,0.06 -0.01,0.1 -0.03,0 -0.07,0.09 -0.1,0.08 0.01,0.02 0.02,0.03 0.03,0.04 -0.03,0.05 -0.04,0.11 -0.07,0.11 0.01,0.02 0.02,0.02 0.03,0.03 -0.01,0.03 -0.02,0.07 -0.02,0.11 l -0.03,-0.01 c -0,0 -0.01,0 -0.01,-0 -0.04,-0 -0.07,0 -0.15,-0.04 -0.06,-0.03 -0.06,-0.06 -0.06,-0.12 0,-0.05 0.02,-0.09 0.02,-0.14 0,-0.01 -0.01,-0.03 -0.01,-0.04 -0.01,-0.03 -0.05,-0.05 -0.08,-0.05 0.01,0.01 0.03,0.02 0.03,0.05 -0.01,0.01 -0.02,0.02 -0.02,0.03 -0.01,0.01 -0.02,0.03 0,0.05 0,0 0,0.01 0,0.01 0,0 -0,0.01 -0,0.02 -0,0.01 -0.01,0 -0.01,0 -0.01,-0.04 -0.03,-0.09 -0.06,-0.09 -0,0 -0.02,-0 -0.02,-0 0,-0 0,-0 0,-0.01 0,-0.04 -0.04,-0.07 -0.08,-0.02 0.01,0 0.03,0 0.03,0.02 -0,0.01 -0.01,0.03 -0.01,0.04 -0,0.04 0.03,0.05 0.07,0.05 0.01,0 0.01,0 0.01,0.01 0,0 0,0.01 0,0.01 0,0.01 -0,0.01 -0.01,0 -0.06,-0.03 -0.09,0 -0.09,0.03 0,0 -0,0.02 0,0.03 -0.02,0.02 -0.03,0.05 0.01,0.07 0,-0.01 -0,-0.03 0.01,-0.04 0,-0 0.01,-0 0.01,-0 0,0.01 0.02,0.01 0.02,0.02 0.01,0 0.02,0 0.04,-0.01 0,-0 0.01,-0.01 0.01,-0 0.01,0.01 0.01,0.01 0.02,0.01 0.01,0 0,0.01 0,0.01 -0.04,0.04 -0.04,0.08 0.02,0.09 0.01,0 0.01,0.01 0.01,0.01 -0,0.08 -0.11,0.06 -0.11,-0.02 -0.06,0.09 0.05,0.16 0.12,0.11 0,-0 0.01,0 0.01,0 0,0.02 0.01,0.03 0.03,0.03 0,-0.01 0,-0.02 0.02,-0.02 0.01,0 0.01,0 0.01,0.01 0,0.02 0.01,0.05 0.04,0.05 -0,-0.02 0,-0.03 0.01,-0.03 0.01,0 0.01,-0.03 0.11,0.02 0.01,0.02 0.02,0.03 0.04,0.04 l 0.07,-0.01 c -0.01,0.05 0.01,0.14 -0,0.14 -0.02,0 -0.13,-0.01 -0.16,0.01 -0.05,0.03 -0.18,0.08 -0.22,0.02 -0.01,-0.02 -0.01,-0.04 -0.03,-0.06 -0.01,-0.02 -0.03,-0.03 -0.04,-0.03 h -0.03 c -0.02,-0.02 -0.07,-0.03 -0.09,-0.01 0.02,0 0.04,0.01 0.05,0.03 -0.01,0.01 -0.01,0.02 -0.01,0.03 -0.01,0.02 -0,0.05 0.08,0.07 0,0 0.01,0.01 0,0.01 -0.01,0 -0.03,0.01 -0.05,-0.01 -0.03,-0.03 -0.04,-0.06 -0.07,-0.04 -0,0 -0.01,0.01 -0.03,0.01 -0,-0 -0,-0 -0.01,-0 -0.03,-0 -0.09,0.04 -0.06,0.08 0,-0.01 0.02,-0.03 0.04,-0.04 0,0.01 0.01,0.02 0.01,0.02 0.01,0.04 0.03,0.08 0.11,0.02 0.01,-0 0.01,0 0.01,0.01 -0.02,0.04 -0.08,0.07 -0.03,0.1 0,0 0.01,0.01 0.02,0.01 -0,0 -0,0 -0,0.01 -0.01,0.05 0.04,0.08 0.07,0.08 -0.01,-0.01 -0.03,-0.04 -0.03,-0.07 0.01,0 0.02,0.01 0.03,0.01 0.04,-0.02 0.02,-0.07 0.04,-0.08 0.01,-0 0.01,-0 0.01,0 0,0.02 0.01,0.07 0.06,0.06 0.05,-0 0.07,-0.04 0.06,-0.07 -0,-0 0,-0 0.01,-0 0.02,0.01 0.03,0.03 0.02,0.05 0.01,-0.01 0.03,-0.02 0.03,-0.04 0.01,0.02 0.01,0.05 -0.02,0.09 0.02,-0.01 0.07,-0.03 0.08,-0.08 0.01,0.01 0.01,0.02 0.02,0.03 0,-0 0,-0 0.01,-0 0.01,0.01 0.05,0.01 0.1,-0 0,-0 0.01,0 0.01,0 -0.01,0.02 -0.01,0.04 0.01,0.05 0,-0.01 0.01,-0.03 0.02,-0.03 0.01,0 -0,0.05 0.03,0.08 0.01,-0.12 0.11,-0.09 0.19,-0.14 0.01,-0.01 0.01,-0 0.01,0 -0.01,0.01 -0.02,0.03 -0.03,0.04 0.08,0.05 0.17,-0.06 0.2,-0.13 0.01,-0.01 0.02,-0.02 0.02,-0.02 0.01,0.01 0.01,0.02 -0.01,0.04 0.08,0 0.07,-0.06 0.1,-0.06 0.25,0.02 0.06,-0.21 0.45,-0.14 0.03,0 0.07,-0.02 0.1,-0.04 -0.03,0.05 -0.03,0.16 0.03,0.17 0.03,0 0.08,0.02 0.09,0.04 0,0.01 0,0.01 -0,0.01 -0.03,0 -0.07,0.01 -0.08,0.02 -0.08,0.05 -0.09,-0.13 -0.17,-0.09 -0,0 -0.02,0.01 -0.02,0.02 -0.04,-0 -0.08,0.04 -0.08,0.08 0.01,-0.01 0.03,-0.03 0.06,-0.03 -0,0.01 -0,0.02 -0,0.02 -0,0.01 0,0.03 0.03,0.03 0.02,0 0.02,-0.01 0.04,-0.01 0.01,0 0.01,0 0.01,0.01 0,0.03 -0.11,-0.02 -0.09,0.07 0,0 0.01,0.02 0.02,0.03 -0,0.03 0.02,0.06 0.07,0.04 -0.01,-0.01 -0.03,-0.02 -0.02,-0.03 0.01,0 0.02,0 0.02,0 0,0 0.01,-0 0.01,-0.01 0,-0 0,-0.01 0.01,-0.01 0.01,0 0.01,0.01 0.01,0.01 0,0.01 -0.01,0.01 -0.01,0.02 0,0 0,0.03 0.01,0.03 -0.01,0.03 0.04,0.07 0.09,0.04 -0.01,-0 -0.05,-0.01 -0.05,-0.03 0.01,-0 0.02,-0.01 0.02,-0.01 0.01,-0.01 0.01,-0.02 0.01,-0.03 0,-0.01 0.01,-0.01 0.01,-0.01 0.01,-0 0.01,-0 0.02,-0 0.01,-0 0.01,0 0.02,0.01 0.01,0.02 0.03,0.04 0.07,0.03 0.06,-0.02 0.01,-0.07 0.06,-0.08 0.01,-0 0.02,-0.01 0.04,-0 0.05,0.01 0.12,0.01 0.13,-0.01 0.01,-0.02 0.01,-0.11 -0.05,-0.14 -0.03,-0.01 0,-0.05 -0.02,-0.09 0.05,0.02 0.1,0.04 0.18,0.04 0.13,0 0.19,-0.02 0.25,-0.05 0.07,-0.04 0.14,-0.02 0.16,-0.02 0.02,0 0.03,0.01 0.02,0.03 -0.03,0.07 -0.01,0.07 -0.03,0.1 -0.02,0.03 -0.07,0.01 -0.11,0 -0.02,-0 -0.04,0.02 -0.04,0.02 -0.04,0.01 -0.08,0.04 -0.09,0.07 0.01,-0.01 0.04,-0.03 0.07,-0.03 -0,0 -0,0.01 -0,0.01 -0.01,0.05 0.04,0.06 0.08,0.03 0,-0.01 0.02,0 0.01,0.01 -0.03,0.02 -0.09,0.06 -0.06,0.08 0,0 0.01,0.01 0.02,0.01 -0.01,0.03 0,0.06 0.02,0.06 -0,-0.02 -0,-0.02 0.02,-0.05 0.01,0 0.02,0 0.02,0 0.03,0 0.03,-0.06 0.07,-0.08 0,-0 0.01,-0 0,0 -0.02,0.03 -0.04,0.07 -0.01,0.08 0,0 0.01,0 0.02,0.01 0,0.03 0.03,0.04 0.07,0.02 -0.01,-0 -0.03,-0.02 -0.03,-0.03 0.01,-0.01 0.03,-0.03 0.03,-0.03 0.04,-0.07 -0.02,-0.07 -0.01,-0.1 0.01,-0.04 0.07,-0.01 0.09,-0.08 0,-0.01 0,-0.03 -0.02,-0.04 -0,-0 -0,-0 -0,-0 h 0 c 0.02,0 0.04,0 0.06,-0.02 -0.05,0 -0.02,-0.04 -0.02,-0.07 0,-0 0,-0.01 0,-0.01 0.02,-0.01 0.04,-0.03 0.04,-0.07 -0.02,0.02 -0.08,0.05 -0.08,0 0,-0 0.01,-0.03 -0.05,-0.03 -0.09,0.01 -0.21,-0.01 -0.37,-0.02 -0.01,-0 -0.02,-0.01 0,-0.01 0.16,-0.01 0.49,-0.04 0.49,-0.14 0,-0.09 -0.02,-0.14 -0.3,-0.14 -0.28,0 -0.91,0.1 -0.91,-0.05 0,-0.08 0.12,-0.07 0.27,-0.06 m -0.91,-0.02 c -0.02,0.03 -0.05,0.05 -0.07,0.02 -0.02,-0.02 0,-0.03 -0.03,-0.08 0.03,0.02 0.08,0.05 0.1,0.06 m 0.06,0.17 c -0.01,0 -0.01,-0.03 -0.02,-0.03 -0.02,-0 -0.01,0.01 -0,0.03 -0.02,-0.01 -0.04,-0.02 -0.05,0 -0.01,0.02 -0,0.03 0.01,0.04 0.01,0.01 0,0.02 -0.01,0.04 -0.01,0.02 -0.03,0.05 -0.06,0.03 -0.03,-0.02 -0.03,-0.05 -0.02,-0.07 0.01,-0.02 0.02,-0.03 0.03,-0.03 0.02,0 0.03,-0 0.04,-0.02 0.01,-0.02 -0.01,-0.03 -0.03,-0.05 0.02,-0.01 0.03,-0.02 0.02,-0.02 -0.01,-0.01 -0.03,0.01 -0.04,-0 -0,-0.01 0.01,-0.02 0.02,-0.02 0.01,-0.01 0.02,-0.01 0.03,0 l 0.09,0.04 c 0.01,0.01 0.02,0.01 0.02,0.02 0,0.01 0,0.03 -0.01,0.03 m 0.05,-0.06 c -0.03,-0 -0.04,-0.04 -0.04,-0.07 0.01,0.01 0.08,0.04 0.11,0.05 -0.05,0.01 -0.04,0.03 -0.07,0.03 m 2.13,-0.83 c -0,-0 -0,-0.01 0,-0.01 0.02,-0.01 0.03,-0.04 0.03,-0.08 -0.02,0.03 -0.08,0.06 -0.08,0 0,-0 -0,-0.04 -0.05,-0.03 -0.09,0.01 -0.18,-0.01 -0.34,-0.02 -0.01,-0 -0.02,-0.01 0,-0.01 0.17,-0.01 0.48,-0.04 0.48,-0.15 0,-0.09 -0.1,-0.15 -0.4,-0.15 -0.29,0 -1.2,0.11 -1.2,-0.06 0,-0.1 0.3,-0.06 0.53,-0.05 0.01,0.02 0.03,0.03 0.07,0.04 0.38,0.11 0.81,-0.18 1.04,-0.11 -0.3,-0.1 -0.49,0.08 -0.77,0.02 0.17,-0 0.35,-0.04 0.35,-0.08 -0.13,0.08 -0.5,-0.06 -0.65,0.04 -0.01,0.01 -0.02,0.01 -0.03,0.02 -0.28,-0 -0.62,-0.04 -0.62,0.13 0,0.29 1.03,0.12 1.28,0.12 0.25,0 0.3,0.03 0.3,0.07 0,0.07 -0.25,0.09 -0.39,0.09 -0.23,0 -1.19,-0.13 -1.58,-0.01 0.02,-0.07 0.12,-0.16 0.07,-0.22 0.04,-0.02 0.06,-0.04 0.06,-0.08 -0.02,-0.02 -0.05,-0.03 -0.07,-0.03 0.01,-0.02 -0,-0.04 -0.02,-0.05 -0,-0 -0.01,-0.04 -0.02,-0.05 -0.01,-0.01 -0.04,-0.04 -0.09,-0.06 -0.04,-0.02 -0.07,-0.02 -0.09,-0.02 -0.01,-0 -0.05,0.01 -0.05,0.01 -0.02,-0 -0.05,-0 -0.05,0.02 -0.02,-0.02 -0.04,-0.03 -0.07,-0.03 -0.01,0.03 -0.02,0.06 -0.01,0.11 -0.04,0 -0.07,0.09 -0.11,0.08 0.01,0.03 0.02,0.04 0.03,0.04 -0.03,0.05 -0.04,0.12 -0.08,0.12 0.02,0.03 0.04,0.04 0.05,0.04 -0,0.03 -0.01,0.06 -0.01,0.09 l -0.05,-0.02 c -0.02,-0 -0.04,-0 -0.05,-0 -0.01,-0 -0.03,-0.01 -0.05,-0.01 -0.05,-0.01 -0.08,-0.08 -0.16,-0.13 -0.06,-0.03 -0.06,-0.06 -0.06,-0.12 0,-0.05 0.02,-0.1 0.02,-0.14 -0,-0.01 -0.01,-0.03 -0.02,-0.05 -0.01,-0.03 -0.05,-0.06 -0.08,-0.05 0.01,0.01 0.03,0.02 0.03,0.05 -0.01,0.01 -0.02,0.03 -0.02,0.03 -0.01,0.01 -0.01,0.03 0,0.05 0,0 0,0.01 0,0.01 0,0.01 -0,0.01 -0,0.02 -0,0.01 -0.01,0 -0.01,0 -0.01,-0.04 -0.03,-0.09 -0.06,-0.09 -0,0 -0.02,-0 -0.03,-0 0,-0 0,-0 0,-0.01 0,-0.04 -0.04,-0.07 -0.09,-0.02 0.01,0 0.03,0 0.04,0.02 -0,0.01 -0.01,0.04 -0.01,0.04 -0,0.04 0.03,0.05 0.07,0.05 0.01,0 0.01,0 0.01,0.01 0,0 0,0.01 0,0.02 0,0.01 -0,0.01 -0.01,0 -0.07,-0.03 -0.1,0 -0.1,0.03 0,0 -0,0.02 0,0.03 -0.02,0.02 -0.03,0.05 0.01,0.08 -0,-0.01 -0,-0.04 0.02,-0.04 0,0 0,-0 0.01,-0 0.01,0.01 0.02,0.01 0.02,0.01 0.01,0 0.02,0 0.04,-0.01 0,-0 0.01,-0 0.02,0 0,0 0.01,0.01 0.02,0.01 0,0 0,0.01 0,0.01 -0.05,0.04 -0.04,0.09 0.02,0.1 0.01,0 0.01,0.01 0.01,0.01 -0,0.08 -0.11,0.07 -0.11,-0.02 -0.06,0.1 0.05,0.17 0.13,0.12 0.01,-0 0.01,-0 0.01,0 0,0.01 0.01,0.03 0.03,0.03 -0,-0 0,-0.02 0.02,-0.02 0,-0 0.01,0 0.01,0.01 0,0.02 0.01,0.05 0.04,0.05 -0,-0.02 0,-0.03 0.01,-0.03 0.02,0 0.07,0.12 0.19,0.19 -0,-0.01 0.05,-0.03 0.07,-0.04 0.01,0.02 0.02,0.04 0.04,0.05 l 0.02,-0.01 c -0.01,0.06 0.06,0.11 0.05,0.11 -0.02,0 -0.13,-0.01 -0.17,0.01 -0.05,0.03 -0.19,0.08 -0.23,0.02 -0.01,-0.02 -0.01,-0.04 -0.03,-0.07 -0.01,-0.02 -0.03,-0.03 -0.04,-0.04 -0,0 -0.02,-0 -0.03,-0 -0.02,-0.02 -0.07,-0.03 -0.09,-0.01 0.02,0 0.03,0.01 0.05,0.03 -0,0.01 -0.01,0.02 -0.01,0.03 -0.01,0.02 -0,0.05 0.08,0.08 0,0 0.01,0.01 0.01,0.01 -0.01,0.01 -0.03,0.01 -0.05,-0.01 -0.03,-0.02 -0.04,-0.06 -0.08,-0.04 -0,0 -0.01,0.01 -0.03,0.01 -0,0 -0,-0 -0.01,-0 -0.04,-0 -0.1,0.04 -0.07,0.09 0,-0.01 0.02,-0.04 0.05,-0.04 0,0.01 0.01,0.02 0.01,0.03 0.01,0.05 0.03,0.08 0.12,0.02 0.01,-0 0.01,0 0.01,0 -0.02,0.04 -0.08,0.08 -0.03,0.11 0,0 0.01,0.01 0.02,0.02 -0,0 -0,0 -0,0.01 -0.01,0.05 0.05,0.09 0.08,0.09 -0.01,-0.01 -0.03,-0.04 -0.03,-0.08 0.01,0 0.02,0.01 0.03,0.01 0.04,-0.02 0.02,-0.07 0.05,-0.09 0.01,-0 0.01,0 0.01,0.01 0,0.02 0.01,0.07 0.06,0.06 0.05,-0 0.07,-0.05 0.07,-0.07 -0,-0.01 0,-0.01 0.01,-0.01 0.02,0.01 0.03,0.03 0.02,0.06 0.01,-0 0.03,-0.02 0.04,-0.04 0.01,0.02 0.01,0.06 -0.02,0.09 0.02,-0.01 0.07,-0.03 0.08,-0.09 0.01,0.01 0.02,0.02 0.02,0.03 0,-0 0,-0 0,-0 0.02,0.01 0.05,0.01 0.1,-0 0.01,-0 0.01,0 0.01,0.01 -0,0.02 -0,0.04 0.01,0.05 0,-0.01 0.01,-0.03 0.02,-0.03 0.01,0 -0,0.05 0.03,0.08 0.01,-0.13 0.08,-0.08 0.16,-0.13 0.01,-0.01 0.01,-0 0.01,0 -0.01,0.01 -0.02,0.03 -0.04,0.04 0.03,0.02 0.15,-0.05 0.15,-0.1 0,-0.01 0.05,-0.02 0.09,-0.02 0.08,0.01 0.07,-0.06 0.11,-0.06 0.48,0.07 0.21,-0.21 0.77,-0.15 0.03,0 0.04,-0.03 0.06,-0.05 -0.03,0.05 -0.03,0.17 0.03,0.18 0.03,0 0.08,0.02 0.1,0.04 0,0 0,0.01 -0,0.01 -0.03,0 -0.07,0.01 -0.08,0.02 -0.09,0.06 -0.09,-0.13 -0.18,-0.1 -0,0 -0.02,0.02 -0.03,0.02 -0.04,-0 -0.09,0.04 -0.08,0.08 0.01,-0.01 0.03,-0.03 0.06,-0.04 v 0.02 c -0,0.02 0,0.03 0.03,0.03 0.02,0 0.02,-0.01 0.04,-0.01 0.01,0 0.01,0 0.01,0.01 0,0.04 -0.12,-0.02 -0.1,0.08 0,0 0.01,0.02 0.02,0.03 -0.01,0.03 0.02,0.06 0.07,0.04 -0.01,-0.01 -0.03,-0.02 -0.02,-0.04 0.01,0 0.02,0 0.02,0 0.01,0 0.01,-0 0.01,-0.02 0,-0 0,-0.01 0.01,-0 0.01,0 0.01,0 0.01,0.01 0,0.01 -0.01,0.01 -0.01,0.02 0,0 0,0.03 0.01,0.03 -0,0.04 0.05,0.07 0.1,0.04 -0.01,-0 -0.05,-0.01 -0.05,-0.02 0.01,-0.01 0.02,-0.01 0.03,-0.01 0.01,-0.01 0.01,-0.02 0.01,-0.04 0,-0.01 0,-0.01 0.01,-0.01 0.01,0 0.02,-0 0.03,-0 0.01,-0 0.01,0 0.02,0.01 0.01,0.02 0.04,0.04 0.07,0.03 0.06,-0.02 0.01,-0.08 0.06,-0.09 0.01,-0 0.02,-0 0.04,0 0.05,0.01 0.12,0.01 0.13,-0.01 0.01,-0.02 0.01,-0.11 -0.05,-0.14 -0.03,-0.01 0,-0.05 -0.03,-0.1 0.05,0.02 0.11,0.05 0.18,0.05 0.14,0 0.18,-0.02 0.24,-0.06 0.07,-0.04 0.14,-0.02 0.17,-0.02 0.01,0 0.03,0.01 0.02,0.03 -0.02,0.07 0,0.08 -0.02,0.11 -0.01,0.03 -0.07,0 -0.11,0 -0.02,-0 -0.04,0.02 -0.04,0.02 -0.03,0.01 -0.08,0.04 -0.08,0.08 0.01,-0.01 0.04,-0.03 0.06,-0.03 v 0.01 c 0,0.05 0.05,0.06 0.08,0.03 0,-0 0.02,0 0.01,0.01 -0.03,0.02 -0.08,0.07 -0.04,0.08 0,0 0.01,0.01 0.02,0.01 -0,0.03 0.01,0.06 0.04,0.06 -0.01,-0.02 -0.01,-0.03 0.01,-0.06 h 0.02 c 0.03,0 0.02,-0.06 0.06,-0.08 0,-0 0.01,-0 0.01,0 -0.01,0.04 -0.03,0.08 0.01,0.09 0,0 0.01,0 0.02,0.01 0.01,0.03 0.04,0.05 0.08,0.02 -0.01,-0 -0.03,-0.01 -0.03,-0.03 0.01,-0.01 0.02,-0.03 0.02,-0.03 0.03,-0.07 -0.03,-0.07 -0.03,-0.1 0,-0.04 0.07,-0.01 0.08,-0.09 0,-0.01 -0,-0.03 -0.03,-0.04 -0,-0 -0,-0 -0,-0.01 h 0 c 0.02,0 0.04,0.01 0.05,-0.02 -0.05,0 -0.03,-0.04 -0.04,-0.07 z m -2.13,-0.55 c 0.01,0.01 0.08,0.04 0.12,0.05 -0.05,0.01 -0.04,0.03 -0.07,0.03 -0.04,-0 -0.05,-0.05 -0.04,-0.08 z m -0.07,-0.04 c -0.02,0.03 -0.05,0.05 -0.07,0.02 -0.02,-0.03 0,-0.03 -0.03,-0.08 0.03,0.02 0.08,0.05 0.1,0.06 z m -0.11,0.24 c 0.01,-0.02 0.02,-0.04 0.03,-0.04 0.02,0 0.03,-0 0.04,-0.02 0.01,-0.02 -0.01,-0.03 -0.03,-0.05 0.02,-0.01 0.03,-0.02 0.02,-0.03 -0.01,-0.01 -0.03,0.01 -0.04,-0 -0.01,-0.01 0.01,-0.02 0.02,-0.03 0.01,-0.01 0.02,-0 0.03,0 l 0.09,0.04 c 0.01,0.01 0.02,0.01 0.02,0.03 0,0.01 0,0.03 -0.01,0.03 -0.01,0 -0.01,-0.03 -0.03,-0.03 -0.01,-0 -0.01,0.01 -0,0.04 -0.02,-0.01 -0.04,-0.02 -0.06,0 -0.01,0.02 -0.01,0.03 0.01,0.05 0.01,0.01 0,0.02 -0.01,0.05 -0.01,0.02 -0.03,0.05 -0.07,0.03 -0.03,-0.02 -0.03,-0.06 -0.02,-0.07 z m -0.08,-0.13 h -0.01 z M 20.12,17.51 c -0,0 -0.01,0 -0.01,0 0,-0 0,-0 0.01,-0 z m 0.44,0.69 c 0,0 0,0 0,0 z m -2.28,-2.38 c 0,-0.09 -0.1,-0.15 -0.39,-0.15 -0.29,0 -1.2,0.11 -1.2,-0.06 0,-0.1 0.31,-0.06 0.53,-0.06 0.01,0.02 0.03,0.03 0.07,0.04 0.38,0.11 0.78,-0.15 1.05,-0.06 -0.22,-0.2 -0.49,0.02 -0.78,-0.04 0.17,-0 0.34,-0.03 0.35,-0.08 -0.13,0.09 -0.5,-0.06 -0.65,0.04 -0.01,0.01 -0.02,0.01 -0.03,0.02 -0.28,-0 -0.62,-0.04 -0.62,0.13 0,0.3 1.03,0.12 1.28,0.12 0.25,0 0.3,0.03 0.3,0.07 0,0.07 -0.25,0.09 -0.39,0.09 -0.23,0 -1.2,-0.13 -1.58,-0.01 0.02,-0.07 0.11,-0.16 0.07,-0.22 0.04,-0.02 0.06,-0.04 0.06,-0.07 -0.02,-0.02 -0.05,-0.03 -0.07,-0.04 0.01,-0.02 -0,-0.04 -0.02,-0.05 -0.01,-0 -0.01,-0.04 -0.02,-0.05 -0.02,-0.01 -0.04,-0.04 -0.09,-0.06 -0.04,-0.02 -0.07,-0.02 -0.09,-0.02 -0.01,-0 -0.05,0.01 -0.05,0.01 -0.02,-0 -0.05,-0 -0.05,0.02 -0.02,-0.02 -0.04,-0.03 -0.07,-0.03 -0.02,0.03 -0.02,0.06 -0.01,0.11 -0.04,0 -0.07,0.09 -0.11,0.08 0.01,0.03 0.02,0.04 0.03,0.04 -0.03,0.05 -0.04,0.11 -0.07,0.12 0.01,0.02 0.02,0.03 0.03,0.03 -0.01,0.03 -0.01,0.06 -0.01,0.09 l -0.03,-0.01 c -0.02,-0 -0.04,-0 -0.05,-0 -0.02,-0 -0.03,-0.01 -0.05,-0.01 -0.05,-0 -0.08,-0.08 -0.16,-0.13 -0.06,-0.03 -0.06,-0.06 -0.06,-0.12 0,-0.05 0.02,-0.1 0.02,-0.15 -0,-0 -0.01,-0.03 -0.01,-0.04 -0.01,-0.03 -0.05,-0.06 -0.08,-0.05 0.01,0.01 0.03,0.02 0.03,0.05 -0.01,0.01 -0.02,0.02 -0.02,0.03 -0.01,0.01 -0.02,0.03 0,0.05 0,0 0,0.01 0,0.01 0,0.01 -0,0.01 -0,0.02 -0,0.01 -0.01,0.01 -0.01,0 -0.01,-0.04 -0.03,-0.09 -0.06,-0.09 -0,0 -0.02,-0 -0.02,-0 0,-0 0,-0 0,-0.01 0,-0.04 -0.04,-0.07 -0.09,-0.02 0.01,0 0.03,0 0.03,0.02 -0,0.01 -0.01,0.04 -0.01,0.04 -0,0.04 0.03,0.05 0.07,0.05 0.01,0 0.01,0 0.01,0.01 0,0.01 0,0.01 0,0.02 0,0.01 -0,0.01 -0.01,0.01 -0.07,-0.03 -0.09,0 -0.1,0.03 0,0 -0,0.02 0,0.03 -0.03,0.02 -0.03,0.05 0.01,0.08 -0,-0.01 -0,-0.04 0.02,-0.04 0,0 0,-0 0.01,-0 0.01,0.01 0.02,0.01 0.02,0.02 0,0 0.02,0 0.04,-0.01 0.01,-0 0.01,-0 0.02,0 0,0 0.01,0.01 0.02,0.01 0,0.01 0,0.01 0,0.01 -0.04,0.04 -0.04,0.09 0.02,0.1 0.01,0 0.01,0.01 0.01,0.01 -0,0.08 -0.11,0.07 -0.11,-0.02 -0.06,0.09 0.05,0.17 0.13,0.12 0,-0 0.01,-0 0.01,0 0,0.02 0.01,0.03 0.03,0.03 -0,-0.01 0,-0.02 0.02,-0.02 0,-0 0,0 0,0.01 0,0.02 0.01,0.05 0.04,0.05 -0.01,-0.02 -0,-0.03 0.01,-0.03 0.01,0 0.07,0.11 0.19,0.18 0.02,-0.01 0.06,-0.01 0.07,-0.03 0,0.01 0.01,0.02 0.03,0.03 0,0.05 0.04,0.12 0.03,0.12 -0.02,0 -0.21,-0.01 -0.24,0.01 -0.06,0.03 -0.19,0.08 -0.23,0.02 -0.01,-0.02 -0.01,-0.04 -0.03,-0.07 -0.01,-0.02 -0.03,-0.04 -0.04,-0.04 -0,-0 -0.02,-0 -0.03,-0 -0.02,-0.02 -0.07,-0.03 -0.09,-0.01 0.02,0 0.04,0.01 0.05,0.04 -0.01,0.01 -0.01,0.02 -0.02,0.03 -0.01,0.02 -0,0.05 0.08,0.08 0,0 0.01,0.01 0,0.01 -0.01,0.01 -0.03,0.01 -0.05,-0 -0.03,-0.03 -0.04,-0.06 -0.08,-0.04 -0,0 -0.02,0.01 -0.03,0.01 -0,0 -0.01,-0 -0.01,-0 -0.04,-0 -0.1,0.04 -0.07,0.09 0,-0.01 0.02,-0.04 0.05,-0.04 0,0.01 0.01,0.02 0.01,0.03 0.01,0.04 0.03,0.08 0.12,0.02 0.01,-0 0.01,0 0.01,0.01 -0.02,0.04 -0.08,0.08 -0.04,0.11 0,0 0.01,0.01 0.02,0.02 -0,0 -0,0 -0,0.01 -0.01,0.05 0.04,0.09 0.07,0.09 -0.01,-0.01 -0.03,-0.04 -0.03,-0.08 0.01,0 0.02,0.01 0.03,0.01 0.04,-0.02 0.02,-0.07 0.05,-0.09 0.01,-0.01 0.01,0 0.01,0.01 0,0.02 0.01,0.07 0.06,0.06 0.05,-0 0.07,-0.05 0.07,-0.07 -0,-0 0,-0.01 0,-0 0.02,0.01 0.03,0.03 0.03,0.05 0.01,-0 0.03,-0.02 0.04,-0.04 0.01,0.02 0.01,0.06 -0.02,0.09 0.02,-0.01 0.07,-0.03 0.08,-0.09 0.01,0.01 0.01,0.02 0.02,0.03 0,-0 0,-0 0,-0 0.02,0.01 0.05,0.01 0.1,-0 0,-0 0.01,0 0,0 -0,0.02 -0,0.04 0.01,0.05 0,-0 0.01,-0.03 0.02,-0.03 0.01,0 -0,0.05 0.03,0.08 0.01,-0.13 0.17,-0.06 0.25,-0.12 0.01,-0.01 0.01,-0 0.01,0 -0.01,0.01 -0.02,0.03 -0.04,0.04 0.03,0 0.07,-0.02 0.11,-0.04 -0,0 -0.01,0.01 -0.01,0.01 l 0.13,-0.06 c 0,-0.01 0.01,-0.03 0.01,-0.04 0.02,-0 0.03,-0.01 0.05,-0.01 -0,0 -0,0 -0,0 0.09,0.01 0.08,-0.06 0.11,-0.06 0.48,0.06 0.21,-0.21 0.77,-0.15 0.03,0 0.04,-0.01 0.06,-0.03 -0.03,0.06 -0.03,0.15 0.03,0.16 0.03,0 0.08,0.02 0.1,0.04 0,0 0,0.01 -0,0.01 -0.03,0.01 -0.07,0.01 -0.08,0.02 -0.09,0.06 -0.09,-0.13 -0.18,-0.1 -0,0 -0.02,0.01 -0.03,0.02 -0.04,0 -0.09,0.04 -0.08,0.08 0.01,-0.01 0.03,-0.03 0.06,-0.04 -0,0.01 -0,0.02 -0,0.02 -0,0.02 0,0.03 0.03,0.03 0.02,0 0.02,-0.01 0.04,-0.01 0.01,0 0.01,0 0.01,0.01 0,0.03 -0.12,-0.02 -0.09,0.08 0,0 0.01,0.02 0.02,0.03 -0,0.03 0.02,0.06 0.07,0.04 -0.01,-0.01 -0.03,-0.02 -0.03,-0.03 0.01,0 0.02,0 0.02,0 0,0 0.01,-0 0.01,-0.01 0,-0 0,-0 0.01,-0 0,0 0.01,0 0.01,0.01 0,0.01 -0.01,0.01 -0.01,0.02 0,0 0.01,0.03 0.01,0.03 -0,0.04 0.05,0.07 0.1,0.04 -0.01,-0 -0.05,-0.01 -0.05,-0.03 0.01,-0.01 0.02,-0.01 0.02,-0.01 0.01,-0.01 0.01,-0.02 0.01,-0.04 0,-0.01 0.01,-0.01 0.01,-0.01 0.01,0 0.02,-0 0.02,-0 0.01,-0 0.02,0 0.02,0.01 0.01,0.02 0.04,0.04 0.07,0.03 0.06,-0.02 0.01,-0.08 0.06,-0.09 0.01,-0 0.02,-0 0.04,0 0.05,0.01 0.12,0.01 0.13,-0.01 0.01,-0.02 0.01,-0.11 -0.05,-0.14 -0.03,-0.02 0,-0.05 -0.03,-0.1 0.05,0.02 0.11,0.05 0.19,0.05 0.13,0 0.17,-0.02 0.23,-0.06 0.07,-0.04 0.14,-0.02 0.16,-0.02 0.02,0 0.03,0.01 0.03,0.03 -0.02,0.07 0.01,0.08 -0.01,0.11 -0.01,0.03 -0.07,0.01 -0.11,0 -0.02,-0 -0.04,0.02 -0.04,0.02 -0.04,0.01 -0.07,0.04 -0.07,0.08 0.01,-0.01 0.04,-0.03 0.06,-0.03 0,0 0,0.01 0,0.01 0.01,0.05 0.06,0.07 0.09,0.03 0.01,-0.01 0.02,0 0.01,0.01 -0.03,0.02 -0.08,0.07 -0.04,0.09 0,0 0.01,0.01 0.02,0.01 -0,0.03 0.02,0.06 0.04,0.06 -0.01,-0.02 -0.01,-0.03 0,-0.06 0.01,0 0.02,0 0.02,0 0.03,0 0.02,-0.06 0.05,-0.08 0,-0 0.01,-0 0.01,0 -0.01,0.03 -0.02,0.08 0.01,0.09 0,0 0.01,0 0.02,0.01 0.01,0.03 0.04,0.05 0.08,0.02 -0.01,-0 -0.03,-0.01 -0.04,-0.03 0.01,-0.01 0.02,-0.03 0.02,-0.03 0.02,-0.07 -0.04,-0.07 -0.04,-0.1 0,-0.04 0.07,-0.01 0.07,-0.09 0,-0.01 -0.01,-0.03 -0.03,-0.04 -0,0 -0,-0 -0,-0 v 0 c 0.02,-0 0.04,0 0.05,-0.02 -0.05,0 -0.04,-0.04 -0.04,-0.07 -0,-0.01 -0,-0.01 0,-0.01 0.02,-0.01 0.03,-0.04 0.02,-0.08 -0.02,0.03 -0.08,0.05 -0.08,0 -0,-0 -0.01,-0.04 -0.06,-0.03 -0.09,0.01 -0.15,-0.01 -0.32,-0.03 0.17,-0.01 0.48,-0.05 0.48,-0.16 m -2.16,-0.24 c 0.01,0.01 0.08,0.04 0.12,0.05 -0.05,0.01 -0.04,0.03 -0.08,0.03 -0.04,0 -0.05,-0.05 -0.04,-0.07 m -0.07,-0.04 c -0.02,0.03 -0.05,0.05 -0.07,0.02 -0.02,-0.02 0,-0.03 -0.03,-0.08 0.03,0.02 0.09,0.06 0.1,0.06 m -0.11,0.24 c 0.01,-0.02 0.02,-0.04 0.03,-0.04 0.02,0 0.03,-0 0.04,-0.02 0.01,-0.02 -0.01,-0.03 -0.03,-0.05 0.02,-0.01 0.03,-0.02 0.02,-0.03 -0.01,-0.01 -0.04,0.01 -0.04,-0 -0,-0.01 0.01,-0.02 0.02,-0.02 0.01,-0.01 0.02,-0.01 0.03,-0 l 0.09,0.04 c 0.01,0.01 0.02,0.01 0.02,0.02 0,0.01 0,0.03 -0.01,0.03 -0.01,0 -0.01,-0.03 -0.03,-0.03 -0.01,-0 -0.01,0.01 -0,0.03 -0.02,-0.01 -0.04,-0.02 -0.05,0 -0.01,0.02 -0.01,0.03 0.01,0.05 0.01,0.01 0,0.03 -0.01,0.05 -0.01,0.02 -0.04,0.05 -0.07,0.04 -0.04,-0.02 -0.03,-0.06 -0.02,-0.08 m 2.47,-1.32 c 0,-0.1 -0.11,-0.16 -0.42,-0.16 -0.31,0 -1.01,0.12 -1.01,-0.06 0,-0.09 0.14,-0.08 0.3,-0.07 0.01,0.01 0.03,0.03 0.07,0.04 0.4,0.12 0.87,-0.09 1.11,-0.03 -0.28,-0.22 -0.52,0.01 -0.83,-0.06 0.18,0 0.24,-0.05 0.25,-0.1 -0.14,0.09 -0.4,-0.04 -0.56,0.06 -0.01,0.01 -0.02,0.01 -0.03,0.02 -0.22,-0.01 -0.4,-0.01 -0.4,0.14 0,0.31 0.83,0.13 1.09,0.13 0.26,0 0.32,0.03 0.32,0.08 0,0.07 -0.26,0.09 -0.4,0.09 -0.23,0 -0.9,-0.12 -1.32,-0.04 0.03,-0.07 0.11,-0.15 0.07,-0.2 0.04,-0.01 0.06,-0.05 0.06,-0.08 -0.02,-0.02 -0.05,-0.03 -0.08,-0.04 0.01,-0.02 -0,-0.04 -0.02,-0.05 -0,-0.01 -0.01,-0.05 -0.02,-0.05 -0.01,-0.01 -0.04,-0.04 -0.09,-0.06 -0.05,-0.02 -0.08,-0.02 -0.09,-0.03 -0.01,-0 -0.05,0.01 -0.06,0.01 -0.02,-0 -0.05,-0 -0.05,0.02 -0.02,-0.02 -0.04,-0.03 -0.07,-0.03 -0.02,0.03 -0.02,0.06 -0.01,0.11 -0.04,0 -0.08,0.1 -0.11,0.09 0.01,0.03 0.02,0.04 0.04,0.04 -0.03,0.06 -0.04,0.12 -0.08,0.12 0.02,0.03 0.04,0.04 0.05,0.05 -0,0.04 -0.01,0.08 -0.01,0.12 l -0.07,-0.02 c -0.01,-0 -0.01,-0 -0.02,-0 -0.01,0 -0.02,-0 -0.03,-0.01 0.01,0 0.02,0 0.03,0.01 l -0.04,-0.01 c -0.04,-0.03 -0.08,-0.08 -0.14,-0.12 -0.06,-0.03 -0.06,-0.06 -0.06,-0.13 0,-0.06 0.03,-0.11 0.03,-0.15 -0,-0.01 -0.01,-0.03 -0.01,-0.05 -0.01,-0.03 -0.05,-0.06 -0.08,-0.05 0.01,0.01 0.03,0.02 0.03,0.06 -0.01,0.01 -0.02,0.02 -0.03,0.03 -0.01,0.01 -0.02,0.03 0,0.05 0,0 0,0.01 0,0.01 0,0 -0,0.01 -0,0.02 -0,0.01 -0.01,0 -0.01,-0 -0.01,-0.04 -0.03,-0.09 -0.06,-0.1 -0,0 -0.02,-0 -0.03,-0 0,-0 0,-0 0,-0.01 0,-0.04 -0.04,-0.07 -0.09,-0.02 0.01,0 0.03,0 0.04,0.02 -0.01,0.01 -0.01,0.04 -0.01,0.04 -0,0.04 0.02,0.05 0.07,0.06 0.01,0 0.01,0 0.01,0.01 0,0.01 0,0.01 0,0.02 0,0.01 -0,0.01 -0.01,0 -0.07,-0.03 -0.1,0 -0.1,0.03 0,0 -0,0.02 0,0.03 -0.03,0.02 -0.03,0.05 0.01,0.08 0,-0.01 -0,-0.04 0.02,-0.04 0,-0 0.01,-0 0.01,-0 0,0.01 0.01,0.02 0.02,0.02 0.01,0 0.02,0 0.04,-0.01 0.01,-0 0.01,-0.01 0.02,0 0.01,0 0.01,0.01 0.02,0.01 0.01,0 0,0.01 0,0.01 -0.05,0.05 -0.04,0.09 0.02,0.1 0.01,0 0.01,0.01 0.01,0.01 -0.01,0.09 -0.13,0.07 -0.12,-0.02 -0.07,0.1 0.04,0.18 0.13,0.13 0,-0.01 0.01,-0 0.01,0 0,0.02 0.01,0.03 0.03,0.03 -0,-0.01 0.01,-0.02 0.02,-0.02 0,0 0,0 0,0.01 0,0.02 0.01,0.05 0.04,0.06 -0,-0.02 0,-0.03 0.01,-0.03 0.02,0 0.05,0.07 0.12,0.11 0.06,0.02 0.1,0.09 0.14,0.05 -0.01,0.06 0.05,0.13 0.04,0.13 -0.02,0 -0.18,-0.01 -0.22,0.01 -0.06,0.03 -0.2,0.08 -0.24,0.02 -0.01,-0.02 -0.01,-0.04 -0.03,-0.07 -0.01,-0.02 -0.03,-0.04 -0.05,-0.04 -0,0 -0.02,-0 -0.03,-0 -0.02,-0.02 -0.08,-0.03 -0.1,-0.01 0.02,0 0.04,0.01 0.05,0.04 -0.01,0.01 -0.01,0.03 -0.01,0.03 -0.01,0.02 -0.01,0.05 0.09,0.08 0,0 0.01,0.01 0,0.01 -0.01,0.01 -0.03,0.01 -0.05,-0.01 -0.04,-0.03 -0.04,-0.07 -0.08,-0.04 -0,0 -0.02,0.01 -0.03,0.01 -0,-0 -0.01,-0 -0.01,-0 -0.04,-0 -0.1,0.04 -0.07,0.09 0.01,-0.01 0.02,-0.03 0.05,-0.04 0,0.01 0.01,0.02 0.01,0.03 0.01,0.05 0.03,0.08 0.12,0.02 0.01,-0.01 0.01,0 0.01,0 -0.02,0.04 -0.08,0.08 -0.04,0.11 0,0 0.01,0.01 0.02,0.02 -0,0 -0,0.01 -0,0.01 -0.01,0.05 0.05,0.09 0.08,0.09 -0.01,-0.01 -0.03,-0.04 -0.03,-0.08 0.01,0 0.02,0.01 0.03,0.01 0.05,-0.02 0.03,-0.07 0.05,-0.09 0.01,-0.01 0.01,-0 0.01,0 0,0.02 0.01,0.08 0.07,0.07 0.05,-0 0.08,-0.05 0.07,-0.08 -0,-0 0,-0.01 0,-0 0.02,0.01 0.03,0.03 0.03,0.06 0.01,-0 0.03,-0.02 0.04,-0.04 0.01,0.03 0.01,0.06 -0.02,0.09 0.02,-0.01 0.07,-0.03 0.09,-0.09 0.01,0.01 0.02,0.02 0.02,0.03 0,-0 0,-0 0,-0 0.02,0.01 0.05,0.01 0.11,-0 0.01,-0 0.01,0 0.01,0.01 -0.01,0.02 -0.01,0.04 0,0.05 0,-0.01 0.02,-0.03 0.02,-0.03 0.01,0 -0,0.05 0.03,0.09 0.01,-0.14 0.09,-0.08 0.17,-0.14 0.01,-0.01 0.01,-0 0.01,0.01 -0,0.02 -0.01,0.03 -0.04,0.05 0.09,0.02 0.24,-0.12 0.27,-0.18 0.04,-0 0.07,-0.01 0.09,-0.01 0.27,0.02 0.08,-0.25 0.52,-0.17 0.03,0 0.08,-0.03 0.11,-0.05 -0.03,0.06 -0.03,0.18 0.03,0.19 0.03,0 0.08,0.02 0.1,0.04 0.01,0 0,0.01 -0,0.01 -0.03,0 -0.07,0.01 -0.08,0.02 -0.09,0.06 -0.1,-0.14 -0.19,-0.1 -0,0 -0.02,0.01 -0.03,0.02 -0.04,0 -0.09,0.05 -0.08,0.09 0.01,-0.01 0.03,-0.03 0.06,-0.04 -0,0.01 -0,0.02 -0,0.02 -0,0.01 0,0.03 0.04,0.03 0.02,0 0.02,-0.01 0.04,-0.01 0.01,0 0.01,0 0.01,0.01 0,0.04 -0.12,-0.02 -0.1,0.08 0,0 0.01,0.02 0.02,0.03 -0,0.03 0.02,0.06 0.08,0.04 -0.01,-0.01 -0.03,-0.02 -0.03,-0.04 0.01,0 0.02,0 0.02,0 0.01,0 0.01,-0 0.01,-0.02 0,-0 0,-0 0,-0 0.01,0 0.01,0 0.01,0.01 0,0.01 -0.01,0.01 -0.01,0.02 0,0 0,0.03 0.01,0.03 -0.01,0.04 0.05,0.08 0.1,0.04 -0.02,-0 -0.05,-0.01 -0.05,-0.03 0.01,-0 0.02,-0.01 0.03,-0.01 0.01,-0.01 0.01,-0.02 0.01,-0.04 0,-0.01 0,-0.01 0.01,-0.01 0.01,0 0.02,0 0.03,-0 0.01,-0 0.02,0 0.02,0.01 0.01,0.02 0.04,0.05 0.08,0.03 0.07,-0.02 0.01,-0.08 0.06,-0.09 0.01,-0 0.03,-0 0.04,0 0.05,0.01 0.13,0.01 0.14,-0.01 0.01,-0.03 0.01,-0.12 -0.05,-0.15 -0.03,-0.02 0,-0.06 -0.03,-0.1 0.06,0.02 0.12,0.05 0.19,0.05 0.14,0 0.18,-0.02 0.24,-0.06 0.07,-0.04 0.15,-0.02 0.17,-0.02 0.02,0 0.03,0.01 0.03,0.04 -0.02,0.07 0.01,0.08 -0.01,0.12 -0.01,0.03 -0.07,0 -0.12,0 -0.03,-0 -0.04,0.01 -0.04,0.02 -0.04,0.01 -0.08,0.04 -0.07,0.08 0.01,-0.01 0.03,-0.03 0.06,-0.03 0,0.01 0,0.01 0,0.02 0,0.05 0.06,0.07 0.09,0.03 0,-0.01 0.02,0 0.01,0.01 -0.03,0.02 -0.08,0.07 -0.04,0.09 0,0 0.01,0.01 0.03,0.02 -0,0.03 0.02,0.06 0.05,0.07 -0.01,-0.02 -0.01,-0.03 0,-0.06 0.01,0 0.02,0 0.02,0 0.03,0 0.02,-0.06 0.05,-0.08 0,-0 0.01,-0 0.01,0 -0.01,0.04 -0.02,0.08 0.01,0.09 0,0 0.02,0 0.03,0 0.01,0.03 0.04,0.05 0.09,0.03 -0.01,-0 -0.03,-0.02 -0.04,-0.03 0.01,-0.01 0.02,-0.03 0.02,-0.03 0.02,-0.08 -0.04,-0.08 -0.04,-0.11 0,-0.04 0.07,-0.01 0.07,-0.09 0,-0.01 -0,-0.04 -0.03,-0.05 -0,-0 -0,-0 -0,-0 l 0,0 c 0.02,-0 0.04,0 0.05,-0.03 -0.06,0 -0.04,-0.04 -0.05,-0.07 -0,-0.01 -0,-0.01 0,-0.01 0.02,-0.01 0.03,-0.04 0.03,-0.08 -0.02,0.03 -0.08,0.05 -0.09,0 -0,-0 -0,-0.04 -0.06,-0.03 -0.09,0.01 -0.16,-0.01 -0.34,-0.03 0.2,0 0.5,-0.05 0.5,-0.17 m -2.42,0.18 c -0,-0 -0,-0 0,-0 -0,0 -0,0 -0,0 m 0.49,-0.44 c 0.01,0.01 0.09,0.04 0.12,0.05 -0.06,0.01 -0.04,0.03 -0.08,0.03 -0.04,-0 -0.05,-0.05 -0.04,-0.08 m -0.07,-0.04 c -0.02,0.03 -0.05,0.05 -0.08,0.02 -0.02,-0.03 0,-0.03 -0.03,-0.08 0.03,0.02 0.09,0.06 0.11,0.06 m -0.12,0.25 c 0.01,-0.02 0.02,-0.04 0.03,-0.04 0.02,0 0.03,-0 0.04,-0.02 0.01,-0.02 -0.01,-0.04 -0.04,-0.05 0.02,-0 0.04,-0.02 0.02,-0.03 -0.01,-0.01 -0.04,0.01 -0.04,-0 -0,-0.01 0.01,-0.02 0.02,-0.02 0.01,-0.01 0.02,-0.01 0.03,-0 l 0.1,0.05 c 0.01,0.01 0.02,0.01 0.02,0.02 -0,0.01 0,0.03 -0.01,0.03 -0.01,0 -0.01,-0.03 -0.03,-0.03 -0.02,-0 -0.02,0.01 -0.01,0.04 -0.02,-0.01 -0.05,-0.02 -0.06,0 -0.01,0.02 -0.01,0.03 0.01,0.05 0.01,0.01 0,0.03 -0.01,0.05 -0.01,0.02 -0.04,0.05 -0.07,0.04 -0.04,-0.02 -0.03,-0.06 -0.02,-0.08 m 0.25,0.54 c 0,-0 0,-0 0,-0 0,0 0,0 -0,0 m 1.43,-1.67 c 0.32,0 0.47,-0.1 0.47,-0.2 0,-0.35 -0.87,-0.13 -0.87,-0.35 0,-0.03 0.02,-0.07 0.06,-0.1 h 0.01 c 0.44,-0.04 0.44,-0.34 0.76,-0.4 -0.38,-0.05 -0.43,0.24 -0.59,0.26 0.09,-0.04 0.12,-0.14 0.11,-0.18 -0.08,0.1 -0.25,0.11 -0.34,0.23 -0.01,0.02 -0.02,0.04 -0.02,0.06 -0.06,0.04 -0.09,0.08 -0.09,0.13 0,0.33 0.88,0.1 0.88,0.35 0,0.08 -0.15,0.14 -0.39,0.14 -0.18,0 -0.31,-0.13 -0.65,-0.04 0,-0.06 0.11,-0.16 0.07,-0.22 0.03,-0.01 0.06,-0.04 0.06,-0.07 -0.02,-0.02 -0.04,-0.03 -0.07,-0.03 0.01,-0.02 -0,-0.03 -0.02,-0.05 -0,-0 -0.01,-0.04 -0.02,-0.05 -0.01,-0.01 -0.04,-0.03 -0.08,-0.05 -0.04,-0.02 -0.06,-0.02 -0.08,-0.02 -0.01,-0 -0.05,0.01 -0.05,0.01 -0.02,-0 -0.04,-0 -0.04,0.02 -0.02,-0.02 -0.04,-0.02 -0.06,-0.03 -0.01,0.03 -0.02,0.05 -0.01,0.09 -0.03,0 -0.07,0.08 -0.1,0.08 0.01,0.02 0.02,0.03 0.03,0.03 -0.03,0.05 -0.04,0.1 -0.07,0.11 0.01,0.01 0.02,0.02 0.02,0.03 -0.03,0.07 -0.04,0.16 -0.05,0.2 h -0 c -0.02,-0.02 -0.04,-0.04 -0.07,-0.06 -0.05,-0.03 -0.05,-0.05 -0.04,-0.1 0.01,-0.04 0.04,-0.08 0.04,-0.12 0,-0.01 -0,-0.03 -0.01,-0.04 -0.01,-0.03 -0.04,-0.05 -0.07,-0.05 0.01,0.01 0.02,0.02 0.02,0.05 -0.01,0.01 -0.02,0.02 -0.02,0.02 -0.01,0.01 -0.02,0.03 -0.01,0.04 0,0 0,0.01 0,0.01 0,0.01 -0,0.01 -0.01,0.02 -0,0.01 -0,0 -0.01,0 -0.01,-0.03 -0.02,-0.08 -0.05,-0.08 -0,-0 -0.02,-0 -0.02,-0 0,-0 0,-0 0,-0.01 0,-0.03 -0.03,-0.06 -0.08,-0.02 0.01,0 0.03,0 0.03,0.01 -0.01,0.01 -0.01,0.03 -0.01,0.03 -0.01,0.03 0.02,0.05 0.06,0.05 0.01,0 0.01,0 0.01,0 0,0 0,0.01 0,0.01 0,0.01 -0,0.01 -0.01,0 -0.06,-0.03 -0.09,0 -0.1,0.02 0,0 -0,0.02 -0,0.03 -0.02,0.01 -0.03,0.04 0,0.07 0,-0.01 0,-0.03 0.02,-0.04 0,-0 0.01,-0 0.01,-0 0,0.01 0.01,0.01 0.01,0.01 0,0 0.02,0 0.04,-0.01 0,-0 0.01,-0 0.02,0 0,0 0.01,0.01 0.02,0.01 0,0 0,0.01 -0,0.01 -0.05,0.04 -0.05,0.07 0.01,0.08 0.01,0 0.01,0 0.01,0.01 -0.01,0.07 -0.12,0.06 -0.1,-0.01 -0.07,0.08 0.02,0.14 0.1,0.1 0.01,-0 0.01,-0 0.01,0 0,0.01 0.01,0.03 0.02,0.03 -0,-0 0.01,-0.02 0.02,-0.02 0.01,0 0.01,0 0.01,0.01 -0,0.02 0,0.04 0.03,0.05 -0,-0.01 0,-0.03 0.01,-0.03 0.01,0 0.03,0.06 0.08,0.11 -0.07,0.03 -0.19,0.06 -0.2,0.06 -0.02,0 -0.12,-0.01 -0.15,0.01 -0.05,0.03 -0.17,0.07 -0.21,0.02 -0.01,-0.02 -0.01,-0.04 -0.02,-0.06 -0.01,-0.02 -0.03,-0.03 -0.04,-0.03 -0,-0 -0.02,-0 -0.03,-0 -0.02,-0.02 -0.07,-0.03 -0.08,-0.01 0.01,0 0.03,0.01 0.05,0.03 -0.01,0.01 -0.01,0.02 -0.01,0.03 -0.01,0.01 -0,0.04 0.07,0.07 0,0 0.01,0.01 0,0.01 -0.01,0 -0.03,0.01 -0.04,-0 -0.03,-0.02 -0.03,-0.06 -0.07,-0.04 -0,0 -0.01,0.01 -0.02,0.01 -0,-0 -0.01,-0 -0.01,-0 -0.03,-0 -0.09,0.04 -0.06,0.08 0,-0.01 0.02,-0.03 0.04,-0.04 0,0.01 0.01,0.02 0.01,0.02 0.01,0.04 0.02,0.07 0.11,0.02 0.01,-0.01 0.01,0 0.01,0 -0.02,0.03 -0.07,0.07 -0.03,0.1 0,0 0.01,0.01 0.02,0.01 -0,0 -0,0 -0,0.01 -0.01,0.05 0.04,0.08 0.07,0.08 -0.01,-0.01 -0.03,-0.03 -0.03,-0.07 0.01,0 0.02,0.01 0.02,0.01 0.04,-0.01 0.02,-0.06 0.04,-0.08 0.01,-0.01 0.01,-0 0.01,0 0,0.02 0.01,0.06 0.06,0.06 0.04,-0.01 0.06,-0.04 0.06,-0.07 -0,-0.01 0,-0.01 0,-0.01 0.02,0.01 0.03,0.03 0.02,0.05 0.01,-0 0.03,-0.02 0.03,-0.03 0.01,0.02 0.01,0.05 -0.02,0.08 0.02,-0.01 0.06,-0.03 0.08,-0.08 0.01,0.01 0.01,0.02 0.02,0.03 0,-0 0,-0 0,-0 0.02,0.01 0.05,0.01 0.09,-0 0,0 0.01,0 0.01,0.01 -0,0.02 -0,0.04 0,0.05 0,-0.01 0.01,-0.02 0.02,-0.02 0.01,0 0,0.05 0.03,0.07 0.01,-0.12 0.07,-0.07 0.15,-0.12 0.01,-0.01 0.01,-0 0.01,0 -0.01,0.01 -0.01,0.03 -0.03,0.04 0.03,0 0.09,-0.03 0.09,-0.07 0,-0.01 0.02,-0.02 0.05,-0.04 0.03,0.01 0.07,-0.01 0.08,-0.04 0,0.01 0.02,0.05 -0,0.06 0.08,0 0.16,-0.08 0.19,-0.09 0.16,-0.03 -0.1,-0.15 0.24,-0.13 0.03,0 0.08,-0.02 0.1,-0.04 -0.03,0.05 -0.03,0.15 0.02,0.16 0.02,0 0.07,0.02 0.09,0.04 0,0 0,0.01 -0,0.01 -0.03,0 -0.06,0.01 -0.07,0.02 -0.08,0.05 -0.08,-0.12 -0.17,-0.09 -0,0 -0.02,0.01 -0.02,0.02 -0.03,0 -0.08,0.04 -0.07,0.08 0.01,-0.01 0.03,-0.03 0.05,-0.03 0,0.01 -0,0.02 -0,0.02 -0,0.01 0,0.03 0.03,0.03 0.02,0 0.02,-0.01 0.03,-0.01 0.01,0 0.01,0 0.01,0.01 0,0.03 -0.1,-0.02 -0.08,0.07 0,0 0.01,0.02 0.02,0.03 -0,0.03 0.02,0.05 0.07,0.04 -0.01,-0.01 -0.03,-0.02 -0.02,-0.03 0.01,0 0.02,0 0.02,0 0,0 0.01,-0 0.01,-0.01 0,-0 0,-0 0,-0 0.01,0 0.01,0 0.01,0.01 0,0.01 -0.01,0.01 -0.01,0.02 0,0 0.01,0.02 0.01,0.03 -0,0.03 0.04,0.06 0.09,0.03 -0.01,-0 -0.04,-0.01 -0.05,-0.02 0.01,-0 0.02,-0.01 0.02,-0.01 0.01,-0.01 0.01,-0.02 0.01,-0.03 0,-0.01 0,-0.01 0.01,-0.01 0.01,-0 0.02,-0 0.02,-0 0.01,-0 0.01,0 0.02,0.01 0.01,0.02 0.03,0.04 0.06,0.03 0.06,-0.02 0.01,-0.07 0.05,-0.08 0.01,-0 0.02,-0 0.03,0 0.04,0.01 0.11,0.01 0.12,-0.01 0.01,-0.02 0.01,-0.1 -0.04,-0.13 -0.03,-0.01 0,-0.05 -0.03,-0.09 0.05,0.02 0.1,0.04 0.17,0.04 0.12,0 0.01,-0.02 0.06,-0.05 0.06,-0.04 0.13,-0.02 0.15,-0.02 0.02,0 0.03,0.01 0.02,0.03 -0.01,0.07 0.01,0.07 -0.01,0.1 -0.01,0.03 -0.06,0 -0.1,0 -0.02,-0 -0.04,0.01 -0.04,0.02 -0.03,0.01 -0.07,0.03 -0.06,0.07 0.01,-0.01 0.03,-0.02 0.05,-0.03 0,0 0,0.01 0,0.01 0,0.04 0.05,0.06 0.08,0.03 0,-0.01 0.02,0 0.01,0.01 -0.02,0.02 -0.07,0.06 -0.03,0.08 0,0 0.01,0.01 0.02,0.01 -0,0.03 0.02,0.05 0.04,0.06 -0.01,-0.01 -0.01,-0.02 0,-0.05 0.01,0 0.02,0 0.02,0 0.03,0 0.02,-0.05 0.04,-0.07 0,-0 0.01,-0 0,0 -0.01,0.03 -0.02,0.07 0.01,0.08 0,0 0.01,0 0.02,0.01 0.01,0.02 0.04,0.04 0.07,0.02 -0.01,-0 -0.03,-0.01 -0.03,-0.02 0.01,-0.01 0.02,-0.02 0.02,-0.03 0.02,-0.07 -0.04,-0.07 -0.04,-0.09 0,-0.03 0.06,-0.01 0.06,-0.08 0,-0.01 -0.01,-0.03 -0.03,-0.04 -0,0 -0,-0 -0,-0 h 0 c 0.02,0 0.04,0.01 0.04,-0.02 -0.05,0 -0.03,-0.04 -0.04,-0.06 -0,-0 -0,-0.01 0,-0.01 0.01,-0.01 0.03,-0.03 0.02,-0.07 -0.02,0.02 -0.07,0.05 -0.07,0 -0,-0 -0,-0.04 -0.05,-0.03 -0.08,0.01 -0.12,-0.03 -0.27,-0.05 -0.01,-0 -0.02,-0.01 0,-0.01 m -0.97,-0.35 c -0,0 -0,0 -0.01,0 0,-0 0,-0 0.01,-0 m 0.23,-0.06 c 0.01,0.01 0.07,0.03 0.1,0.04 -0.05,0.01 -0.04,0.03 -0.07,0.03 -0.03,-0 -0.04,-0.04 -0.04,-0.07 m -0.06,-0.03 c -0.01,0.02 -0.04,0.04 -0.07,0.02 -0.02,-0.02 0,-0.03 -0.02,-0.07 0.03,0.02 0.08,0.05 0.09,0.05 m -0.1,0.21 c 0.01,-0.02 0.02,-0.03 0.03,-0.03 0.02,0 0.03,-0 0.03,-0.02 0.01,-0.02 -0.01,-0.03 -0.03,-0.04 0.02,-0.01 0.03,-0.01 0.02,-0.02 -0.01,-0.01 -0.03,0.01 -0.04,-0 -0,-0.01 0.01,-0.02 0.02,-0.02 0.01,-0.01 0.02,-0.01 0.03,0 l 0.08,0.04 c 0.01,0 0.02,0.01 0.02,0.02 -0,0.01 0,0.02 -0.01,0.03 -0.01,0 -0.01,-0.03 -0.02,-0.03 -0.01,-0 -0.01,0.01 -0,0.03 -0.02,-0.01 -0.04,-0.02 -0.05,0 -0.01,0.02 -0.01,0.03 0.01,0.04 0.01,0.01 0,0.02 -0.01,0.04 -0.01,0.02 -0.03,0.05 -0.06,0.03 -0.03,-0.01 -0.03,-0.05 -0.02,-0.07 m 1.18,4.94 -0.08,-0 0,-0.07 c 0.01,-0.26 -0.14,-0.45 -0.42,-0.45 -0.25,0 -0.73,0.32 -1.4,0.32 -0.29,0 -0.63,-0.14 -0.84,-0.26 l -0.08,0.2 c 0,-0.01 0,-0.01 0,-0.02 0,-0.09 -0.07,-0.17 -0.17,-0.17 -0.09,0 -0.17,0.08 -0.17,0.17 0,0.09 0.07,0.17 0.17,0.17 0.05,0 0.1,-0.03 0.13,-0.06 l -0.08,0.2 c 0.03,0.01 0.06,0.03 0.09,0.04 -0.1,1.02 0.66,2.33 1.99,2.72 0.2,-0.05 0.4,-0.02 0.4,0.19 0,0.13 -0.07,0.19 -0.19,0.19 -0.08,0 -0.13,-0.05 -0.13,-0.1 0,-0.09 0.16,-0.03 0.17,-0.1 0.02,-0.08 -0.03,-0.12 -0.12,-0.12 -0.09,0 -0.23,0.06 -0.23,0.22 0,0.18 0.15,0.29 0.3,0.29 0.15,0 0.46,-0.08 0.42,-0.45 0.07,0 0.15,-0.01 0.17,-0.08 l 0.02,-0.21 -0.07,-0.01 0.06,-2.34 0.05,0 c 0.09,0.01 0.16,-0.03 0.17,-0.13 0.01,-0.09 -0.07,-0.14 -0.14,-0.14 m -2.41,0.18 1.62,2.33 C 16.61,20.17 15.75,19.4 15.86,18.18 m 1.67,2.11 -1.48,-2.13 c 0.05,0 0.1,0 0.14,0 0.08,0 0.15,-0 0.23,-0.02 l 1.18,1.7 c -0.03,0.17 -0.05,0.32 -0.07,0.44 m 0.11,-0.67 -1.04,-1.5 c 0.12,-0.03 0.23,-0.06 0.33,-0.1 l 0.78,1.12 c -0.02,0.16 -0.05,0.32 -0.08,0.48 m 0.25,-1.65 -0.06,-0.01 c -0.07,-0 -0.16,0.03 -0.16,0.12 -0.01,0.09 0.06,0.15 0.15,0.15 l 0.04,0 c -0,0.02 -0.01,0.04 -0.01,0.06 -0.02,0.13 -0.05,0.35 -0.09,0.61 l -0.66,-0.95 c 0.31,-0.12 0.56,-0.26 0.69,-0.26 0.11,0 0.13,0.05 0.11,0.27 m 4.03,-2.42 c 0.06,-0.03 0.1,-0.07 0.12,-0.11 -0.06,0.02 -0.11,-0.01 -0.12,-0.02 0.04,-0.03 0.09,0 0.04,-0.08 -0.05,-0.08 -0.08,-0.08 -0.14,-0.02 -0.05,0.05 -0.4,-0.01 -0.39,-0.27 0.02,0.05 0.07,0.08 0.12,0.1 0.01,0.01 0.03,0.01 0.04,0.02 0.01,0 0.03,0.01 0.04,0.01 0.03,0.01 0.07,0.02 0.1,0.01 0.01,0 0.02,0 0.02,0 v -0.01 c 0.07,-0.02 0.13,-0.06 0.13,-0.13 0.01,-0.14 -0.12,-0.21 -0.27,-0.33 -0.06,-0.05 -0.1,-0.09 -0.14,-0.13 -0.05,-0.1 -0.02,-0.19 -0.15,-0.38 -0.01,-0.05 -0.02,-0.1 -0.04,-0.17 -0.07,0.12 -0.1,0.35 0.08,0.55 0.14,0.16 0.45,0.31 0.44,0.45 -0,0.03 -0.03,0.06 -0.08,0.07 -0.01,-0 -0.03,-0 -0.04,-0 -0.01,-0 -0.02,-0 -0.03,-0.01 -0.02,-0.01 -0.04,-0.02 -0.06,-0.03 -0.03,-0.02 -0.07,-0.04 -0.11,-0.08 -0.13,-0.12 -0.24,-0.29 -0.32,-0.39 -0.14,-0.18 -0.08,-0.36 -0.06,-0.51 0.1,-0.14 -0.06,-0.42 -0.16,-0.49 0,0 0.02,-0.06 -0.01,-0.15 -0.02,0.02 -0.06,0.01 -0.09,0.01 -0.03,-0.05 -0.04,-0.06 -0.07,-0.07 -0.06,-0.01 -0.06,-0.04 -0.07,-0.07 -0.04,0.03 -0.05,0.06 -0.09,0.07 -0.05,0 -0.07,-0 -0.09,0.02 -0.04,0.03 -0.05,0.04 -0.11,0.04 -0.06,-0 -0.06,0.03 -0.05,0.07 0,0.03 0.01,0.07 0.04,0.08 0,0 0.01,0.01 0.02,0.01 l 0.05,0.05 0.03,-0.06 c 0.02,-0.02 0.1,-0.03 0.11,0.02 0.01,0.04 0.02,0.05 -0.03,0.05 -0.05,0.01 -0.08,0.01 -0.12,0.01 -0.03,0 -0.03,0.04 -0.03,0.07 0,0.03 0.04,0.05 0.11,0.03 0.07,-0.02 0.19,-0.03 0.19,0.03 0,0.15 -0.17,0.15 -0.21,0.33 -0.04,-0.03 -0.09,-0.06 -0.11,-0.1 -0.02,-0.05 -0.07,-0.1 -0.13,-0.16 -0.04,-0.04 -0.08,-0.08 -0.13,-0.11 -0.06,-0.04 -0.06,-0.07 -0.06,-0.13 0,-0.05 0.02,-0.1 0.02,-0.16 0,-0.01 -0.01,-0.03 -0.01,-0.05 -0.01,-0.03 -0.06,-0.06 -0.08,-0.05 0.01,0.01 0.03,0.02 0.03,0.05 -0.01,0.01 -0.02,0.03 -0.03,0.03 -0.01,0.01 -0.02,0.03 0,0.05 0,0 0,0.01 0,0.01 0,0.01 -0,0.01 -0,0.03 -0,0.01 -0,0 -0.01,-0 -0.01,-0.04 -0.03,-0.09 -0.07,-0.1 -0,0 -0.02,-0 -0.03,0 0,-0 0,-0 0,-0.01 0,-0.04 -0.04,-0.07 -0.09,-0.02 0.01,0 0.03,0 0.04,0.02 -0,0.01 -0.01,0.04 -0.01,0.04 -0,0.04 0.03,0.06 0.07,0.06 0.01,0 0.01,0 0.01,0.01 0,0.01 0,0.01 0.01,0.02 0,0.01 -0,0.01 -0.01,0 -0.07,-0.03 -0.1,0 -0.1,0.03 0,0 0,0.02 0,0.03 -0.03,0.02 -0.03,0.05 0.01,0.08 0,-0.01 -0,-0.04 0.01,-0.04 0,-0 0.01,-0 0.01,-0 0.01,0.01 0.02,0.02 0.02,0.02 0,0 0.02,0 0.04,-0.01 0.01,-0 0.01,-0 0.02,0 0.01,0.01 0.01,0.01 0.02,0.01 0,0 0,0.01 0,0.01 -0.04,0.05 -0.04,0.09 0.02,0.1 -0.03,0.05 -0.11,0.03 -0.1,-0.04 -0.06,0.1 0.04,0.16 0.12,0.13 0,0.03 0,0.1 0.01,0.1 -0,-0.01 0,-0.02 0.02,-0.02 0.01,0 0.01,0 0.01,0.01 0,0.02 0.01,0.05 0.04,0.05 -0,-0.01 0,-0.02 0.01,-0.03 0.01,0.02 0.03,0.05 0.04,0.07 0.04,0.07 0.12,0.26 0.3,0.33 -0.09,0.05 -0.16,0.13 -0.22,0.21 -0.05,0.05 -0.13,0.1 -0.17,0.08 -0.02,-0.01 -0.03,-0.03 -0.05,-0.05 -0.02,-0.01 -0.04,-0.02 -0.06,-0.02 -0,0 -0.02,0.01 -0.03,0.01 -0.03,-0.01 -0.08,0 -0.1,0.03 0.02,-0 0.04,-0.01 0.07,0.01 -0,0.01 -0,0.03 -0,0.03 -0,0.02 0.02,0.05 0.11,0.04 0,0 0.02,0 0.01,0.01 -0.01,0.01 -0.03,0.02 -0.05,0.01 -0.04,-0.01 -0.06,-0.05 -0.09,-0.01 -0,0 -0.01,0.02 -0.02,0.02 -0,-0 -0.01,0 -0.01,0 -0.04,0.01 -0.07,0.08 -0.03,0.12 0,-0.01 0,-0.04 0.03,-0.06 0.01,0.01 0.02,0.02 0.02,0.02 0.03,0.04 0.06,0.06 0.12,-0.03 0.01,-0.01 0.01,-0 0.01,0 -0,0.04 -0.05,0.11 0.01,0.12 0,0 0.02,0 0.03,0 0,0 0,0.01 0,0.01 0.01,0.05 0.08,0.06 0.11,0.05 -0.02,-0.01 -0.05,-0.02 -0.06,-0.06 0.01,0 0.03,-0 0.03,-0 0.03,-0.03 -0.01,-0.08 0.01,-0.1 0,-0.01 0.01,-0.01 0.01,0 0.01,0.02 0.04,0.06 0.09,0.04 0.03,-0.02 0.03,-0.04 0.04,-0.06 0.06,-0.03 0.12,-0.05 0.17,-0.03 -0.01,-0.03 0.03,-0.08 0.1,-0.1 0.07,-0.02 0.1,0 0.12,0.02 0.01,-0.03 0.03,-0.08 0.07,-0.12 -0.01,0.27 0.36,0.26 0.44,0.43 -0.11,-0.04 -0.23,-0.07 -0.3,-0.06 -0.09,0.02 -0.24,0.1 -0.26,0.2 -0.01,0.08 0.07,0.23 0.16,0.29 -0.1,0.02 -0.14,-0.01 -0.24,0.01 -0,-0 -0.01,-0 -0.01,-0 -0.08,0.01 -0.09,-0.14 -0.19,-0.1 -0.01,0 -0.02,0.01 -0.03,0.02 h -0 c -0.04,0 -0.09,0.05 -0.08,0.09 0.01,-0.01 0.03,-0.03 0.06,-0.04 -0,0.01 -0,0.02 -0,0.02 -0,0.02 0,0.03 0.04,0.03 0.02,0 0.03,-0.01 0.04,-0.01 0.01,0 0.01,0 0.01,0.01 0,0.04 -0.12,-0.02 -0.1,0.08 0,0 0.01,0.02 0.02,0.03 -0,0.03 0.02,0.06 0.08,0.04 -0.01,-0.01 -0.03,-0.02 -0.03,-0.04 0.01,0 0.02,0 0.02,0 0.01,0 0.01,-0 0.01,-0.02 0,-0 0,-0 0.01,-0 0.01,0 0.01,0.01 0.01,0.01 0,0 -0.01,0.01 -0.01,0.02 0,0 0,0.03 0.01,0.03 -0,0.04 0.05,0.08 0.1,0.04 -0.01,-0 -0.05,-0.01 -0.05,-0.03 0.01,-0 0.02,-0.01 0.03,-0.01 0.01,-0.01 0.01,-0.02 0.01,-0.04 0,-0.01 0,-0.01 0.01,-0.01 0.01,-0 0.02,-0 0.03,-0 0.01,-0 0.01,0 0.02,0.01 0.01,0.02 0.04,0.04 0.08,0.03 0.02,-0.01 0.03,-0.02 0.03,-0.03 0.01,0.01 0.03,0.02 0.04,0.03 -0.01,-0.04 0.02,-0.07 0.1,-0.01 l 0.06,-0.05 c 0,0 0.08,0.03 0.11,-0 0.05,-0.04 0.02,-0.05 0.02,-0.09 -0.04,-0.08 -0.06,-0.07 -0.07,-0.15 -0.03,-0.13 0.16,-0.21 0.27,-0.19 0.02,0.09 0.14,0.31 0.34,0.38 0.12,0.04 0.18,-0.09 0.22,-0.07 0.01,0 0.02,0.02 0.02,0.04 -0.01,0.06 0,0.12 -0.01,0.15 -0.01,0.03 -0.08,0 -0.13,0 -0.03,-0 -0.05,0.02 -0.05,0.02 -0.04,0.01 -0.08,0.04 -0.08,0.08 0.01,-0.01 0.04,-0.03 0.07,-0.04 0,0.01 0,0.01 0,0.02 0.01,0.05 0.07,0.07 0.1,0.04 0,-0.01 0.02,0 0.01,0.01 -0.03,0.02 -0.09,0.07 -0.04,0.09 0,0 0.02,0.01 0.03,0.01 -0,0.04 0.02,0.07 0.05,0.07 -0.01,-0.02 -0.01,-0.03 0,-0.06 0.01,0 0.02,0 0.03,0 0.03,0 0.02,-0.07 0.06,-0.08 0,-0 0.01,-0 0.01,0 -0.01,0.04 -0.02,0.08 0.01,0.1 0,0 0.02,0 0.03,0.01 0.01,0.03 0.05,0.05 0.1,0.03 -0.01,-0.01 -0.04,-0.02 -0.04,-0.03 0.01,-0.01 0.02,-0.03 0.02,-0.03 0.02,-0.08 -0.05,-0.08 -0.05,-0.12 0,-0.04 0.08,-0.01 0.08,-0.09 0,-0 -0,-0.01 -0,-0.01 0.04,-0.02 0.08,-0.05 0.08,-0.08 -0.05,0 -0.09,-0.01 -0.1,-0.02 z m 0.76,0.47 c 0.08,0.05 0.05,0.17 -0.05,0.16 -0.09,-0.79 -0.39,-1.55 -0.83,-2.2 0,-0 0.01,-0.01 0.01,-0.01 0.08,-0.03 0.16,-0.1 0.18,-0.23 -0.13,-0.02 -0.23,0.05 -0.28,0.12 -0.03,-0.04 -0.06,-0.08 -0.1,-0.12 -0.27,-0.35 -0.59,-0.65 -0.94,-0.88 -0.33,-0.22 -0.68,-0.38 -1.04,-0.48 0.01,-0.09 0.12,-0.1 0.16,-0.02 0.01,-0.14 -0.11,-0.21 -0.17,-0.18 -0.04,0.01 -0.07,0.05 -0.08,0.11 -0.04,-0.05 -0.11,-0.09 -0.2,-0.1 -0.01,0.09 0.02,0.16 0.06,0.21 -0.06,-0 -0.09,0.02 -0.12,0.06 -0.04,0.06 0.01,0.19 0.15,0.2 -0.07,-0.05 -0.04,-0.16 0.05,-0.15 v 1.7 c -0.08,-0.03 -0.19,-0.02 -0.28,0.07 0.09,0.09 0.2,0.1 0.28,0.07 v 1.84 c -0.09,0.01 -0.12,-0.11 -0.04,-0.16 -0.14,0 -0.2,0.12 -0.17,0.19 0.02,0.04 0.06,0.07 0.14,0.07 -0.04,0.05 -0.07,0.11 -0.07,0.19 0.08,-0 0.15,-0.03 0.19,-0.07 -0.01,0.08 0.03,0.12 0.07,0.14 0.06,0.03 0.19,-0.03 0.19,-0.16 -0.05,0.07 -0.16,0.05 -0.16,-0.04 h 1.28 c -0.02,0.08 -0.01,0.19 0.07,0.28 0.09,-0.09 0.1,-0.2 0.07,-0.28 H 22.49 c 0.01,0.09 -0.11,0.11 -0.16,0.04 0,0.14 0.13,0.19 0.19,0.16 0.04,-0.02 0.07,-0.06 0.07,-0.14 0.05,0.04 0.11,0.07 0.19,0.07 -0,-0.08 -0.04,-0.15 -0.08,-0.19 0.08,0 0.12,-0.03 0.14,-0.07 0.03,-0.07 -0.03,-0.19 -0.17,-0.19 m -1.22,-2.25 c -0.04,0.04 -0.06,0.09 -0.04,0.12 0.01,0.04 0.05,0.08 0.13,0.09 -0.05,0.04 -0.09,0.1 -0.1,0.18 0.08,0.01 0.15,-0.01 0.2,-0.05 -0.02,0.08 0.01,0.12 0.05,0.15 0.03,0.02 0.07,0.02 0.12,0 0.33,0.53 0.55,1.14 0.65,1.76 -0.04,-0.03 -0.1,-0.04 -0.16,-0.04 0,0.09 0.04,0.16 0.09,0.2 h -1.08 c 0.01,-0.07 -0.03,-0.13 -0.07,-0.14 -0.04,-0.02 -0.09,-0.01 -0.15,0.05 -0,-0.06 -0.03,-0.13 -0.09,-0.19 -0.06,0.06 -0.08,0.13 -0.08,0.19 -0.05,-0.06 -0.1,-0.07 -0.15,-0.05 -0.04,0.01 -0.08,0.08 -0.07,0.14 h -0.92 c 0.04,-0.04 0.06,-0.1 0.07,-0.18 -0.08,0 -0.14,0.03 -0.19,0.07 v -1.5 c 0.07,0.01 0.13,-0.02 0.15,-0.07 0.01,-0.04 0.01,-0.1 -0.05,-0.15 0.06,-0 0.13,-0.03 0.19,-0.09 -0.06,-0.06 -0.13,-0.08 -0.19,-0.08 0.06,-0.05 0.07,-0.1 0.05,-0.15 -0.01,-0.04 -0.08,-0.08 -0.15,-0.07 v -1.27 c 0.04,0.03 0.09,0.06 0.16,0.07 0,-0.07 -0.01,-0.13 -0.04,-0.18 0.29,0.09 0.57,0.23 0.83,0.41 0.31,0.21 0.6,0.48 0.86,0.79 m 4.05,2.77 c -0.15,-0.11 -0.4,-0.35 -0.53,-0.62 -0.16,-0.34 -0.85,-1.7 -0.96,-1.88 -0.09,-0.15 -0.13,-0.28 -0.13,-0.41 0,-0.14 0.07,-0.26 0.15,-0.36 0.05,-0.07 0.2,-0.21 0.26,-0.3 0.04,-0.07 0.08,-0.12 0.12,-0.16 -0.25,-0.43 -0.51,-0.76 -0.84,-1.13 -0.41,-0.46 -0.86,-0.85 -1.35,-1.17 0.26,-0.17 0.53,-0.42 0.53,-0.83 0,-0.24 -0.1,-0.43 -0.28,-0.59 0.28,-0.89 0.78,-1.96 1.2,-2.43 l -0.89,-0.38 c 0.23,0.35 0.25,0.77 0.2,1.01 -0.23,-0.16 -0.43,-0.38 -0.5,-0.68 -0.05,0.27 -0.19,0.71 -0.33,0.97 0.26,-0.12 0.46,-0.18 0.73,-0.07 -0.15,0.2 -0.53,0.52 -1.12,0.38 -0.32,-0.08 -0.63,-0.24 -0.62,-0.49 0.01,-0.15 0.12,-0.32 0.31,-0.3 0.19,0.02 0.2,0.32 0.14,0.45 0.25,-0.14 0.52,-0.89 0.12,-1 -0.31,-0.09 -0.6,0.34 -0.7,0.68 -0.06,-0.4 -0.22,-0.78 -0.54,-0.76 -0.41,0.03 -0.28,0.79 -0.13,0.98 0.02,-0.27 0.17,-0.41 0.29,-0.4 0.11,0.01 0.25,0.09 0.23,0.33 -0.03,0.24 -0.37,0.39 -0.76,0.39 -0.38,0 -1.04,-0.12 -1.1,-0.85 0.24,0.04 0.63,0.23 0.79,0.48 -0.05,-0.44 -0.05,-0.75 0,-1.21 -0.2,0.29 -0.54,0.44 -0.78,0.48 0.07,-0.31 0.34,-0.64 0.65,-0.84 h -1.62 c 0.31,0.2 0.58,0.52 0.65,0.83 -0.24,-0.04 -0.57,-0.19 -0.77,-0.47 0.05,0.46 0.05,0.77 0,1.21 0.16,-0.24 0.53,-0.43 0.78,-0.47 -0.06,0.73 -0.72,0.84 -1.1,0.84 -0.39,0 -0.74,-0.15 -0.76,-0.39 -0.02,-0.24 0.12,-0.32 0.23,-0.33 0.12,-0.01 0.27,0.13 0.29,0.4 0.14,-0.19 0.28,-0.95 -0.13,-0.98 -0.32,-0.02 -0.48,0.36 -0.54,0.76 -0.1,-0.33 -0.39,-0.76 -0.7,-0.68 -0.4,0.11 -0.13,0.86 0.12,1 -0.06,-0.13 -0.05,-0.43 0.14,-0.45 0.2,-0.02 0.31,0.16 0.31,0.3 0.01,0.25 -0.3,0.41 -0.62,0.49 -0.58,0.14 -0.97,-0.17 -1.12,-0.37 0.27,-0.11 0.48,-0.06 0.74,0.06 -0.14,-0.26 -0.28,-0.7 -0.33,-0.97 -0.07,0.3 -0.27,0.52 -0.51,0.68 -0.05,-0.24 -0.04,-0.66 0.2,-1.01 l -0.89,0.38 c 0.43,0.47 0.92,1.55 1.2,2.44 -0.17,0.15 -0.27,0.35 -0.27,0.58 0,0.41 0.27,0.66 0.53,0.83 -0.49,0.32 -0.94,0.71 -1.35,1.17 -0.61,0.68 -1.09,1.48 -1.42,2.38 0.12,0.13 0.66,0.71 0.78,0.87 0.22,0.28 0.35,0.56 0.36,0.78 0.01,0.4 0.1,0.56 0.31,0.83 0.07,0.09 0.16,0.4 0.17,0.6 h 4.43 v 4.83 c -0.17,0.01 -0.36,0.06 -0.51,0.24 0.51,0.21 1,0.39 1.49,0.54 0.05,-0.32 0.11,-0.51 0.27,-0.71 0,0 -0.64,-0.06 -0.99,-0.08 v -4.83 h 4.33 c -0.02,0.66 -0.13,1.31 -0.35,1.91 -0.23,0.63 -0.56,1.2 -0.97,1.69 -0.41,0.49 -0.9,0.87 -1.44,1.14 -0.09,0.04 -0.08,0.1 -0.17,0.14 -0.08,0.08 -0.15,0.23 -0.21,0.39 -0.05,0.14 -0.08,0.25 -0.1,0.44 0.2,0.06 0.31,0.1 0.51,0.14 1.52,0.38 1.9,0.27 1.98,0.2 l 0,-0 c 0.34,-0.26 0.66,-0.56 0.96,-0.9 0.61,-0.69 1.09,-1.5 1.42,-2.39 0.35,-0.93 0.52,-1.91 0.52,-2.93 0,-0.18 0.01,-0.25 -0.01,-0.43 z m -6.73,0.33 h -4.44 c 0.01,-0.69 0.13,-1.35 0.35,-1.98 0.23,-0.63 0.56,-1.2 0.97,-1.69 0.42,-0.49 0.9,-0.87 1.44,-1.14 0.53,-0.26 1.09,-0.4 1.67,-0.41 z m 0.08,-7.39 c -1.48,0 -2.49,0.44 -3.09,0.83 -0.34,-0.2 -0.49,-0.4 -0.49,-0.64 0,-0.84 2.37,-0.92 3.58,-0.92 h 0 0 c 1.2,0 3.58,0.07 3.58,0.92 0,0.24 -0.15,0.43 -0.49,0.64 C 21.34,9.91 20.33,9.48 18.85,9.48 Z m 0.18,7.39 v -5.22 c 0.54,0.03 1.07,0.16 1.57,0.4 0.54,0.27 1.02,0.65 1.44,1.14 0.42,0.49 0.74,1.06 0.97,1.69 0.23,0.63 0.34,1.3 0.35,1.98 z m 14.81,10.8 c -0.02,-0.06 -0.09,-0.1 -0.15,-0.08 -1.39,0.4 -3.11,-0.75 -4.78,-1.86 -1.4,-0.93 -2.73,-1.82 -3.86,-1.82 -0.42,0 -0.79,0.09 -1.11,0.26 -0.4,0.22 -0.69,0.57 -0.88,1.03 -0.19,0.47 -0.39,0.78 -0.55,1.04 -0.19,0.31 -0.33,0.52 -0.33,0.8 0,0.22 0.1,0.43 0.29,0.62 0.16,0.16 0.39,0.32 0.73,0.5 0.07,0.04 0.14,0.07 0.21,0.1 0.28,0.13 0.45,0.23 0.48,0.38 -0.55,0.24 -1.26,0.44 -2.07,0.58 -0.91,0.16 -1.91,0.24 -2.96,0.24 -1.06,0 -2.05,-0.08 -2.96,-0.24 -0.81,-0.14 -1.52,-0.34 -2.07,-0.59 0.02,-0.23 0.19,-0.32 0.49,-0.47 0.07,-0.03 0.14,-0.07 0.22,-0.11 0.28,-0.15 0.54,-0.29 0.71,-0.45 0.19,-0.17 0.29,-0.36 0.29,-0.58 0,-0.27 -0.14,-0.49 -0.33,-0.8 -0.16,-0.25 -0.36,-0.57 -0.55,-1.04 -0.19,-0.46 -0.49,-0.81 -0.88,-1.02 -0.32,-0.17 -0.69,-0.26 -1.11,-0.26 -1.14,0 -2.46,0.88 -3.86,1.82 -1.67,1.11 -3.39,2.26 -4.78,1.86 -0.06,-0.02 -0.13,0.01 -0.15,0.08 -0.02,0.06 0.01,0.13 0.07,0.16 0.42,0.19 0.8,0.48 1.16,0.76 0.5,0.39 0.97,0.76 1.49,0.76 0.49,0 1.02,-0.16 1.67,-0.49 0.56,-0.29 1.14,-0.69 1.7,-1.07 1.1,-0.75 2.23,-1.53 3.31,-1.61 -0.11,0.12 -0.22,0.21 -0.32,0.31 -0.32,0.28 -0.59,0.53 -0.59,1.03 0,0.39 0.13,0.67 0.32,1.06 0.05,0.11 0.12,0.24 0.18,0.38 0.12,0.26 0.17,0.48 0.24,0.77 0.03,0.13 0.07,0.27 0.11,0.44 0.07,0.26 0.2,0.73 0.98,1.14 0.92,0.47 2.49,0.7 4.69,0.7 2.19,0 3.77,-0.24 4.69,-0.7 0.79,-0.4 0.92,-0.88 0.98,-1.14 0.05,-0.17 0.08,-0.31 0.11,-0.44 0.07,-0.29 0.12,-0.51 0.24,-0.77 0.09,-0.19 0.17,-0.35 0.25,-0.49 0.16,-0.31 0.29,-0.55 0.29,-0.91 0,-0.5 -0.29,-0.76 -0.62,-1.06 -0.11,-0.09 -0.22,-0.2 -0.34,-0.32 1.08,0.09 2.21,0.86 3.31,1.61 0.56,0.38 1.14,0.78 1.7,1.07 0.64,0.34 1.18,0.49 1.67,0.49 0.52,0 0.99,-0.37 1.49,-0.76 0.36,-0.28 0.73,-0.57 1.15,-0.76 0.06,-0.03 0.09,-0.1 0.07,-0.16 M 19.92,26.24 c -0.07,0 -0.14,0.01 -0.2,0.03 v -1.19 c -0.52,-0.02 -1.13,-0.1 -1.73,-0.26 v 1.45 c -0.07,-0.02 -0.14,-0.03 -0.21,-0.03 -0.42,0 -0.67,0.35 -0.67,0.68 0,0.31 0.18,0.59 0.34,0.76 0.08,-0.19 0.15,-0.33 0.25,-0.33 0.21,0 0.11,1.03 0.72,1.06 -0.02,0.05 -0.03,0.11 -0.03,0.16 0,0.26 0.21,0.47 0.47,0.47 0.26,0 0.47,-0.21 0.47,-0.47 0,-0.06 -0.01,-0.11 -0.03,-0.16 0.6,-0.03 0.5,-1.06 0.71,-1.06 0.1,0 0.17,0.14 0.26,0.33 0.16,-0.18 0.34,-0.46 0.34,-0.76 0,-0.33 -0.26,-0.68 -0.67,-0.68 m -1.07,2.59 c -0.15,0 -0.26,-0.12 -0.26,-0.26 0,-0.15 0.12,-0.26 0.26,-0.26 0.15,0 0.26,0.12 0.26,0.26 0,0.14 -0.12,0.26 -0.26,0.26 m 1.41,-1.5 c -0.07,-0.13 -0.18,-0.21 -0.27,-0.21 -0.4,0 -0.25,1.07 -0.73,1.07 -0.21,0 -0.32,-0.13 -0.32,-0.29 0,-0.15 0.11,-0.19 0.11,-0.32 0,-0.12 -0.09,-0.16 -0.2,-0.16 -0.1,0 -0.2,0.04 -0.2,0.16 0,0.12 0.11,0.17 0.11,0.32 0,0.15 -0.11,0.29 -0.32,0.29 -0.48,0 -0.32,-1.07 -0.73,-1.07 -0.09,0 -0.19,0.08 -0.27,0.21 -0.08,-0.15 -0.13,-0.3 -0.13,-0.42 0,-0.2 0.15,-0.47 0.47,-0.47 0.54,0 0.42,0.74 0.67,0.74 0.12,0 0.2,-0.07 0.2,-0.18 0,-0.21 -0.38,-0.41 -0.38,-0.71 0,-0.3 0.27,-0.55 0.58,-0.79 0.3,0.24 0.58,0.49 0.58,0.79 0,0.3 -0.38,0.5 -0.38,0.71 0,0.11 0.08,0.18 0.2,0.18 0.26,0 0.13,-0.74 0.67,-0.74 0.32,0 0.47,0.27 0.47,0.47 0,0.11 -0.05,0.27 -0.13,0.42 m 0.28,-4.02 c -0.99,-0.25 -2.17,-0.67 -3.27,-1.17 l 0,-0.01 c 0.03,-0.22 -0.05,-0.48 -0.22,-0.67 -0.17,-0.2 -0.4,-0.31 -0.62,-0.31 -0.1,0 -0.2,0.02 -0.3,0.06 -0.16,-0.14 -0.31,-0.3 -0.46,-0.47 -0.42,-0.49 -0.74,-1.06 -0.97,-1.69 -0.13,-0.36 -0.23,-0.74 -0.29,-1.12 -0.05,0.32 -0.41,0.75 -1.03,0.75 0.01,-0.07 0,-0.23 -0.05,-0.24 -0.16,0.18 -0.41,0.38 -0.97,0.18 0.09,0.44 0.21,0.87 0.36,1.29 0.33,0.9 0.81,1.7 1.42,2.39 0.2,0.23 0.41,0.44 0.63,0.64 -0,0.04 -0.01,0.09 -0.01,0.13 0,0.23 0.22,0.6 0.55,0.76 0.26,0.13 0.55,0.1 0.81,-0.09 0.48,0.26 1.1,0.5 1.76,0.68 0.74,0.21 1.46,0.32 2.02,0.32 0.48,0 1.12,-0.23 1.75,-0.63 0.25,-0.16 0.49,-0.34 0.66,-0.5 0.03,-0.02 0.05,-0.04 0.07,-0.06 -0.49,0.07 -1.23,-0.07 -1.84,-0.22 m -3.63,-1.49 -0.1,-0.08 c -0.19,-0.14 -0.35,-0.14 -0.53,0.01 -0.08,0.07 -0.16,0.16 -0.23,0.24 l -0.11,0.12 0.07,0.06 c 0.2,0.16 0.23,0.34 0.18,0.44 -0.02,0.04 -0.06,0.07 -0.11,0.08 -0.1,0.03 -0.24,-0.01 -0.39,-0.1 l -0.08,-0.05 -0.05,0.08 c -0.01,0.02 -0.02,0.04 -0.04,0.05 -0.02,0.03 -0.03,0.05 -0.05,0.08 -0.09,0.15 -0.13,0.27 -0.13,0.36 0,0.03 0,0.05 0.01,0.08 0.03,0.11 0.12,0.16 0.2,0.21 l 0.05,0.03 c 0.09,0.06 0.22,0.13 0.31,0.19 -0.18,0.1 -0.36,0.11 -0.54,0.02 -0.27,-0.13 -0.45,-0.44 -0.45,-0.6 0,-0.24 0.11,-0.53 0.3,-0.84 l 0.03,-0.05 -0.03,-0.05 c -0.06,-0.1 -0.1,-0.19 -0.14,-0.27 0.1,0.01 0.2,0.03 0.31,0.06 l 0.05,0.01 0.04,-0.04 c 0.12,-0.13 0.54,-0.55 0.92,-0.55 0.18,0 0.35,0.09 0.49,0.24 0.1,0.11 0.16,0.25 0.18,0.38 -0.05,-0.04 -0.12,-0.08 -0.18,-0.13 m 0.64,1.89 c -0.23,0 -0.42,-0.19 -0.42,-0.42 0,-0.24 0.19,-0.43 0.42,-0.43 0.23,0 0.42,0.19 0.42,0.43 0,0.23 -0.19,0.42 -0.42,0.42 m 1.86,0.57 c -0.21,0 -0.39,-0.17 -0.39,-0.39 0,-0.21 0.17,-0.39 0.39,-0.39 0.21,0 0.39,0.17 0.39,0.39 0,0.21 -0.17,0.39 -0.39,0.39 M 19.38,1.65 C 19.16,1.48 18.98,1.22 18.95,0.95 19.21,1 19.5,1.19 19.67,1.41 V 0.32 C 19.5,0.55 19.21,0.73 18.95,0.78 18.98,0.52 19.14,0.27 19.36,0 h -1.05 c 0.22,0.27 0.38,0.52 0.41,0.78 C 18.47,0.73 18.18,0.55 18.01,0.32 V 1.41 c 0.17,-0.22 0.46,-0.41 0.71,-0.46 -0.03,0.27 -0.2,0.52 -0.43,0.7 z m -1.51,1.31 c 0.1,0.44 0.49,0.77 0.97,0.77 0.47,0 0.87,-0.33 0.97,-0.77 z M 19.05,2.58 h 0.77 C 19.75,2.18 19.44,1.86 19.05,1.78 Z m -0.41,0 V 1.78 c -0.4,0.08 -0.7,0.4 -0.77,0.8 z m 0.81,1.24 c 0,0.17 0.14,0.32 0.31,0.32 0.17,0 0.31,-0.14 0.31,-0.32 0,-0.17 -0.14,-0.32 -0.31,-0.32 -0.17,0 -0.31,0.14 -0.31,0.32 m 1.05,-0.03 c 0.17,0 0.32,-0.14 0.32,-0.32 0,-0.17 -0.14,-0.31 -0.32,-0.31 -0.17,0 -0.31,0.14 -0.31,0.31 0,0.17 0.14,0.32 0.31,0.32 m 0.78,-0.23 c 0.17,0 0.31,-0.14 0.31,-0.32 0,-0.17 -0.14,-0.31 -0.31,-0.31 -0.17,0 -0.32,0.14 -0.32,0.31 0,0.17 0.14,0.32 0.32,0.32 m 2.22,0.71 c 0.17,0 0.31,-0.14 0.31,-0.31 0,-0.18 -0.14,-0.32 -0.31,-0.32 -0.17,0 -0.31,0.14 -0.31,0.32 0,0.17 0.14,0.31 0.31,0.31 M 22.89,3.73 c 0.17,0 0.31,-0.14 0.31,-0.32 0,-0.17 -0.14,-0.32 -0.31,-0.32 -0.17,0 -0.31,0.14 -0.31,0.32 0,0.17 0.14,0.32 0.31,0.32 M 22.1,3.49 c 0.17,0 0.32,-0.14 0.32,-0.32 0,-0.17 -0.14,-0.31 -0.32,-0.31 -0.17,0 -0.32,0.14 -0.32,0.31 0,0.17 0.14,0.32 0.32,0.32 m 1.69,2.4 c -0.17,0 -0.31,0.14 -0.31,0.32 0,0.17 0.14,0.31 0.31,0.31 0.17,0 0.32,-0.14 0.32,-0.31 0,-0.17 -0.14,-0.32 -0.32,-0.32 m 0.15,-0.76 c -0.17,0 -0.31,0.14 -0.31,0.32 0,0.17 0.14,0.32 0.31,0.32 0.17,0 0.32,-0.14 0.32,-0.32 0,-0.17 -0.14,-0.32 -0.32,-0.32 M 23.53,4.68 c 0,0.17 0.14,0.32 0.31,0.32 0.17,0 0.31,-0.14 0.31,-0.32 0,-0.17 -0.14,-0.32 -0.31,-0.32 -0.17,0 -0.31,0.14 -0.31,0.32 m -5.62,-0.54 c 0.17,0 0.31,-0.14 0.31,-0.32 0,-0.17 -0.14,-0.32 -0.31,-0.32 -0.17,0 -0.31,0.14 -0.31,0.32 0,0.17 0.14,0.32 0.31,0.32 M 17.18,3.79 c 0.17,0 0.31,-0.14 0.31,-0.32 0,-0.17 -0.14,-0.31 -0.31,-0.31 -0.17,0 -0.32,0.14 -0.32,0.31 0,0.17 0.14,0.32 0.32,0.32 M 16.4,3.57 c 0.17,0 0.31,-0.14 0.31,-0.32 0,-0.17 -0.14,-0.31 -0.31,-0.31 -0.17,0 -0.32,0.14 -0.32,0.31 0,0.17 0.14,0.32 0.32,0.32 m -2.22,0.71 c 0.17,0 0.31,-0.14 0.31,-0.31 0,-0.18 -0.14,-0.32 -0.31,-0.32 -0.17,0 -0.31,0.14 -0.31,0.32 0,0.17 0.14,0.31 0.31,0.31 M 14.79,3.73 c 0.17,0 0.31,-0.14 0.31,-0.32 0,-0.17 -0.14,-0.32 -0.31,-0.32 -0.17,0 -0.32,0.14 -0.32,0.32 0,0.17 0.14,0.32 0.32,0.32 m 0.78,-0.24 c 0.17,0 0.31,-0.14 0.31,-0.32 0,-0.17 -0.14,-0.31 -0.31,-0.31 -0.17,0 -0.31,0.14 -0.31,0.31 0,0.17 0.14,0.32 0.31,0.32 m -1.38,2.72 c 0,-0.17 -0.14,-0.32 -0.31,-0.32 -0.17,0 -0.31,0.14 -0.31,0.32 0,0.17 0.14,0.31 0.31,0.31 0.17,0 0.31,-0.14 0.31,-0.31 M 14.04,5.44 c 0,-0.17 -0.14,-0.32 -0.32,-0.32 -0.17,0 -0.31,0.14 -0.31,0.32 0,0.17 0.14,0.32 0.31,0.32 0.17,0 0.32,-0.14 0.32,-0.32 M 13.83,4.99 c 0.17,0 0.31,-0.14 0.31,-0.32 0,-0.17 -0.14,-0.32 -0.31,-0.32 -0.17,0 -0.31,0.14 -0.31,0.32 0,0.17 0.14,0.32 0.31,0.32 m 7.34,0.2 c 0.18,0.35 0.34,0.55 0.31,0.82 -0.02,0.27 -0.31,0.46 -0.44,0.73 -0.12,-0.31 -0.32,-0.55 -0.3,-0.8 0.02,-0.25 0.36,-0.57 0.42,-0.75 m -4.66,0 c -0.18,0.35 -0.34,0.55 -0.31,0.82 0.02,0.27 0.31,0.46 0.44,0.73 0.12,-0.31 0.32,-0.55 0.3,-0.8 -0.02,-0.25 -0.36,-0.57 -0.42,-0.75" />
<path fill="currentColor" d="M 46,6.3 V 28.7 h 4.5 v -9.5 h 9.4 v 9.5 h 4.5 V 6.3 H 59.8 V 15.2 H 50.5 V 6.3 Z m 22.8,0 V 28.7 h 4.5 V 13.1 l 6.1,7.8 h 0.6 l 0.2,-0.2 5.9,-7.6 v 15.6 h 4.5 V 6.3 H 85.9 L 79.6,14.4 73.6,6.3 Z m 26.2,0 v 0.5 21.9 h 4.5 v -7.6 h 3.7 c 4.5,0 7.8,-3.1 7.8,-7.4 0,-2.1 -0.7,-4 -2.1,-5.3 -1.3,-1.3 -3.2,-2.1 -5.4,-2.1 z m 4.5,4 h 3.6 c 1.2,0 2,0.4 2.5,1 0.5,0.6 0.8,1.4 0.8,2.3 v 0.1 c 0,0.9 -0.3,1.7 -0.8,2.3 -0.5,0.6 -1.4,1 -2.5,1 H 99.4 Z M 113.6,6.3 v 0.5 21.9 h 4.5 v -7.6 h 3.7 c 4.5,0 7.8,-3.1 7.8,-7.4 0,-2.1 -0.7,-4 -2.1,-5.3 -1.3,-1.3 -3.2,-2.1 -5.4,-2.1 z m 4.5,4 h 3.6 c 1.2,0 2,0.4 2.5,1 0.5,0.6 0.8,1.4 0.8,2.3 v 0.1 c 0,0.9 -0.3,1.7 -0.8,2.3 -0.5,0.6 -1.4,1 -2.5,1 h -3.6 z M 139.7,6 c -3,0 -5.1,1 -6.5,2.3 -1.3,1.3 -1.9,3 -1.9,4.4 0,2.8 1.7,4.8 3.7,5.6 2.1,0.9 4.7,1.2 6.6,1.7 0.6,0.2 1.1,0.4 1.5,0.8 0.4,0.3 0.6,0.7 0.6,1.4 0,1 -0.4,1.6 -1,2.1 -0.7,0.5 -1.6,0.7 -2.9,0.7 -2.1,0 -3.6,-0.9 -5.2,-2.4 l -0.8,-0.8 -3.4,2.7 0.4,0.4 0.5,0.6 C 133,27.3 135.9,29 139.7,29 c 4.8,0 8.5,-3 8.5,-7 0,-1.6 -0.5,-2.9 -1.2,-3.8 -0.8,-0.9 -1.8,-1.6 -2.9,-2 -2.2,-0.9 -4.7,-1.1 -6.2,-1.5 -0.5,-0.1 -1,-0.4 -1.4,-0.7 -0.4,-0.3 -0.6,-0.7 -0.6,-1.4 0,-0.8 0.4,-1.4 1,-1.8 0.6,-0.4 1.6,-0.7 2.6,-0.7 1.9,0 3.5,0.9 4.6,2.1 l 0.3,0.3 3.5,-2.5 -0.3,-0.4 C 145.5,7.2 142.7,6 139.7,6 Z"
aria-label="HMPPS" />
</svg>
