<?xml version="1.0" encoding="UTF-8" standalone="no"?>
<svg
   xmlns:dc="http://purl.org/dc/elements/1.1/"
   xmlns:cc="http://creativecommons.org/ns#"
   xmlns:rdf="http://www.w3.org/1999/02/22-rdf-syntax-ns#"
   xmlns:svg="http://www.w3.org/2000/svg"
   xmlns="http://www.w3.org/2000/svg"
   xmlns:sodipodi="http://sodipodi.sourceforge.net/DTD/sodipodi-0.dtd"
   xmlns:inkscape="http://www.inkscape.org/namespaces/inkscape"
   version="1.1"
   id="Layer_1"
   x="0px"
   y="0px"
   viewBox="0 0 23.999999 24"
   xml:space="preserve"
   sodipodi:docname="proposition-user-icon.svg"
   width="24"
   height="24"
   inkscape:version="0.92.2 5c3e80d, 2017-08-06"
   inkscape:export-xdpi="96"
   inkscape:export-ydpi="96"><metadata
     id="metadata11"><rdf:RDF><cc:Work
         rdf:about=""><dc:format>image/svg+xml</dc:format><dc:type
           rdf:resource="http://purl.org/dc/dcmitype/StillImage" /><dc:title /></cc:Work></rdf:RDF></metadata><defs
     id="defs9" /><sodipodi:namedview
     pagecolor="#ffffff"
     bordercolor="#666666"
     borderopacity="1"
     objecttolerance="10"
     gridtolerance="10"
     guidetolerance="10"
     inkscape:pageopacity="0"
     inkscape:pageshadow="2"
     inkscape:window-width="1440"
     inkscape:window-height="855"
     id="namedview7"
     showgrid="false"
     inkscape:zoom="18.194707"
     inkscape:cx="10.902111"
     inkscape:cy="12"
     inkscape:window-x="0"
     inkscape:window-y="1"
     inkscape:window-maximized="1"
     inkscape:current-layer="g13" /><style
     type="text/css"
     id="style2">
.st0{fill:#FF0232;}
</style><g
     inkscape:groupmode="layer"
     id="layer2"
     inkscape:label="BG"
     style="display:none"
     sodipodi:insensitive="true"><rect
       style="fill:#0b0c0c;fill-opacity:1;stroke:none;stroke-width:4;stroke-linecap:round;stroke-linejoin:round;stroke-miterlimit:4;stroke-dasharray:none;stroke-dashoffset:0;stroke-opacity:0.72380952"
       id="rect818"
       height="24"
       x="0"
       y="3.5527137e-15"
       width="24" /></g><g
     inkscape:groupmode="layer"
     id="layer1"
     inkscape:label="Blue User"
     style="display:none"><path
       class="st0"
       d="M 12,0 C 8.79482,0 5.78373,1.247689 3.51571,3.515712 1.24769,5.783734 0,8.794824 0,12 0,15.205175 1.24769,18.216266 3.51571,20.484288 5.78373,22.752311 8.79482,24 12,24 15.20518,24 18.21627,22.752311 20.48429,20.484288 22.75231,18.216266 24,15.205175 24,12 24,8.794824 22.75231,5.783734 20.48429,3.515712 18.21627,1.247689 15.20518,0 12,0 Z m 0,22.319778 c -2.48983,0 -4.84104,-0.876155 -6.7098,-2.478743 V 15.67098 c 0,-2.029575 1.64695,-3.676525 3.67653,-3.676525 h 2.15711 C 9.4658,11.600739 8.22921,10.109057 8.22921,8.32902 8.22921,6.243992 9.91497,4.558225 12,4.558225 c 2.08503,0 3.77079,1.685767 3.77079,3.770795 0,1.780037 -1.23659,3.271719 -2.89463,3.665435 h 2.15711 c 2.02958,0 3.67653,1.64695 3.67653,3.676525 v 4.170055 C 16.84104,21.449168 14.48983,22.319778 12,22.319778 Z"
       id="path4"
       inkscape:connector-curvature="0"
       style="fill:#005ea5;fill-opacity:1;stroke-width:0.05545286" /></g><g
     style="display:inline"
     inkscape:label="Yellow User"
     id="g13"
     inkscape:groupmode="layer"><path
       style="fill:#ffbf47;fill-opacity:1;stroke-width:0.05545286"
       inkscape:connector-curvature="0"
       id="path11"
       d="M 12,0 C 8.79482,0 5.78373,1.247689 3.51571,3.515712 1.24769,5.783734 0,8.794824 0,12 0,15.205175 1.24769,18.216266 3.51571,20.484288 5.78373,22.752311 8.79482,24 12,24 15.20518,24 18.21627,22.752311 20.48429,20.484288 22.75231,18.216266 24,15.205175 24,12 24,8.794824 22.75231,5.783734 20.48429,3.515712 18.21627,1.247689 15.20518,0 12,0 Z m 0,22.319778 c -2.48983,0 -4.84104,-0.876155 -6.7098,-2.478743 V 15.67098 c 0,-2.029575 1.64695,-3.676525 3.67653,-3.676525 h 2.15711 C 9.4658,11.600739 8.22921,10.109057 8.22921,8.32902 8.22921,6.243992 9.91497,4.558225 12,4.558225 c 2.08503,0 3.77079,1.685767 3.77079,3.770795 0,1.780037 -1.23659,3.271719 -2.89463,3.665435 h 2.15711 c 2.02958,0 3.67653,1.64695 3.67653,3.676525 v 4.170055 C 16.84104,21.449168 14.48983,22.319778 12,22.319778 Z"
       class="st0" /></g></svg>
